{
    "accessors" : [
        {
            "bufferView" : 0,
            "componentType" : 5121,
            "count" : 150,
            "max" : [
                55
            ],
            "min" : [
                0
            ],
            "type" : "SCALAR"
        },
        {
            "bufferView" : 1,
            "componentType" : 5126,
            "count" : 56,
            "max" : [
                4.5527544021606445,
                1.2597647905349731,
                4.568236351013184
            ],
            "min" : [
                -4.5527544021606445,
                -1.2597647905349731,
                -4.568236351013184
            ],
            "type" : "VEC3"
        },
        {
            "bufferView" : 2,
            "componentType" : 5126,
            "count" : 56,
            "max" : [
                0.8992583751678467,
                1.0,
                0.8240302801132202
            ],
            "min" : [
                -0.8474684953689575,
                -0.999969482421875,
                -0.8338267207145691
            ],
            "type" : "VEC3"
        },
        {
            "bufferView" : 3,
            "componentType" : 5126,
            "count" : 56,
            "max" : [
                0.9998142123222351,
                6.528379890369251e-05,
                0.9999446868896484,
                -1.0
            ],
            "min" : [
                -0.9980316162109375,
                -0.8635855317115784,
                -0.9991349577903748,
                -1.0
            ],
            "type" : "VEC4"
        },
        {
            "bufferView" : 4,
            "componentType" : 5126,
            "count" : 56,
            "max" : [
                2.179323434829712,
                6.734980583190918
            ],
            "min" : [
                -1.8303887844085693,
                -5.774209976196289
            ],
            "type" : "VEC2"
        },
        {
            "bufferView" : 5,
            "componentType" : 5121,
            "count" : 129,
            "max" : [
                54
            ],
            "min" : [
                0
            ],
            "type" : "SCALAR"
        },
        {
            "bufferView" : 6,
            "componentType" : 5126,
            "count" : 55,
            "max" : [
                2.820530652999878,
                2.677359104156494,
                0.9945089817047119
            ],
            "min" : [
                -2.8205292224884033,
                -0.1880737543106079,
                -0.994509220123291
            ],
            "type" : "VEC3"
        },
        {
            "bufferView" : 7,
            "componentType" : 5126,
            "count" : 55,
            "max" : [
                0.9955748319625854,
                0.999664306640625,
                0.29126864671707153
            ],
            "min" : [
                -0.964873194694519,
                0.08630634844303131,
                -0.5110019445419312
            ],
            "type" : "VEC3"
        },
        {
            "bufferView" : 8,
            "componentType" : 5126,
            "count" : 55,
            "max" : [
                0.5585343241691589,
                0.5271462798118591,
                0.9989543557167053,
                1.0
            ],
            "min" : [
                -0.33118608593940735,
                -0.5533781051635742,
                -0.9999856352806091,
                1.0
            ],
            "type" : "VEC4"
        },
        {
            "bufferView" : 9,
            "componentType" : 5126,
            "count" : 55,
            "max" : [
                1.0000001192092896,
                1.0
            ],
            "min" : [
                0.0,
                5.960464477539063e-08
            ],
            "type" : "VEC2"
        },
        {
            "bufferView" : 10,
            "componentType" : 5121,
            "count" : 330,
            "max" : [
                135
            ],
            "min" : [
                0
            ],
            "type" : "SCALAR"
        },
        {
            "bufferView" : 11,
            "componentType" : 5126,
            "count" : 136,
            "max" : [
                0.7621994018554688,
                3.882518768310547,
                0.7571817636489868
            ],
            "min" : [
                -0.7621994018554688,
                -3.882518768310547,
                -0.7571817636489868
            ],
            "type" : "VEC3"
        },
        {
            "bufferView" : 12,
            "componentType" : 5126,
            "count" : 136,
            "max" : [
                0.9959105253219604,
                0.999969482421875,
                0.983306348323822
            ],
            "min" : [
                -0.9921262264251709,
                -1.0,
                -0.9973754286766052
            ],
            "type" : "VEC3"
        },
        {
            "bufferView" : 13,
            "componentType" : 5126,
            "count" : 136,
            "max" : [
                0.993443489074707,
                0.13528408110141754,
                0.9882950782775879,
                1.0
            ],
            "min" : [
                -0.9983737468719482,
                -0.999984860420227,
                -0.9924546480178833,
                1.0
            ],
            "type" : "VEC4"
        },
        {
            "bufferView" : 14,
            "componentType" : 5126,
            "count" : 136,
            "max" : [
                0.999783456325531,
                0.9997834286477882
            ],
            "min" : [
                0.0002165713522117585,
                0.24897092580795288
            ],
            "type" : "VEC2"
        },
        {
            "bufferView" : 15,
            "componentType" : 5123,
            "count" : 136,
            "max" : [
                0,
                0,
                0,
                0
            ],
            "min" : [
                0,
                0,
                0,
                0
            ],
            "type" : "VEC4"
        },
        {
            "bufferView" : 16,
            "componentType" : 5126,
            "count" : 136,
            "max" : [
                0.0,
                0.0,
                0.0,
                0.0
            ],
            "min" : [
                0.0,
                0.0,
                0.0,
                0.0
            ],
            "type" : "VEC4"
        },
        {
            "bufferView" : 17,
            "componentType" : 5121,
            "count" : 180,
            "max" : [
                55
            ],
            "min" : [
                0
            ],
            "type" : "SCALAR"
        },
        {
            "bufferView" : 18,
            "componentType" : 5126,
            "count" : 56,
            "max" : [
                3.0268759727478027,
                1.356196403503418,
                2.927161693572998
            ],
            "min" : [
                -3.0268759727478027,
                -1.3561973571777344,
                -2.9271621704101562
            ],
            "type" : "VEC3"
        },
        {
            "bufferView" : 19,
            "componentType" : 5126,
            "count" : 56,
            "max" : [
                0.999969482421875,
                0.8781090974807739,
                0.8112735152244568
            ],
            "min" : [
                -0.999969482421875,
                -0.999969482421875,
                -0.8112735152244568
            ],
            "type" : "VEC3"
        },
        {
            "bufferView" : 20,
            "componentType" : 5126,
            "count" : 56,
            "max" : [
                0.9999983906745911,
                0.0994286835193634,
                1.0,
                1.0
            ],
            "min" : [
                -0.9999982714653015,
                -0.09838195890188217,
                -1.0,
                1.0
            ],
            "type" : "VEC4"
        },
        {
            "bufferView" : 21,
            "componentType" : 5126,
            "count" : 56,
            "max" : [
                0.965872585773468,
                1.7572646737098694
            ],
            "min" : [
                0.08255928009748459,
                0.016972064971923828
            ],
            "type" : "VEC2"
        }
    ],
    "asset" : {
        "generator" : "Khronos Blender glTF 2.0 exporter",
        "version" : "2.0"
    },
    "bufferViews" : [
        {
            "buffer" : 0,
            "byteLength" : 150,
            "byteOffset" : 0,
            "target" : 34963
        },
        {
            "buffer" : 0,
            "byteLength" : 672,
            "byteOffset" : 152,
            "target" : 34962
        },
        {
            "buffer" : 0,
            "byteLength" : 672,
            "byteOffset" : 824,
            "target" : 34962
        },
        {
            "buffer" : 0,
            "byteLength" : 896,
            "byteOffset" : 1496,
            "target" : 34962
        },
        {
            "buffer" : 0,
            "byteLength" : 448,
            "byteOffset" : 2392,
            "target" : 34962
        },
        {
            "buffer" : 0,
            "byteLength" : 129,
            "byteOffset" : 2840,
            "target" : 34963
        },
        {
            "buffer" : 0,
            "byteLength" : 660,
            "byteOffset" : 2972,
            "target" : 34962
        },
        {
            "buffer" : 0,
            "byteLength" : 660,
            "byteOffset" : 3632,
            "target" : 34962
        },
        {
            "buffer" : 0,
            "byteLength" : 880,
            "byteOffset" : 4292,
            "target" : 34962
        },
        {
            "buffer" : 0,
            "byteLength" : 440,
            "byteOffset" : 5172,
            "target" : 34962
        },
        {
            "buffer" : 0,
            "byteLength" : 330,
            "byteOffset" : 5612,
            "target" : 34963
        },
        {
            "buffer" : 0,
            "byteLength" : 1632,
            "byteOffset" : 5944,
            "target" : 34962
        },
        {
            "buffer" : 0,
            "byteLength" : 1632,
            "byteOffset" : 7576,
            "target" : 34962
        },
        {
            "buffer" : 0,
            "byteLength" : 2176,
            "byteOffset" : 9208,
            "target" : 34962
        },
        {
            "buffer" : 0,
            "byteLength" : 1088,
            "byteOffset" : 11384,
            "target" : 34962
        },
        {
            "buffer" : 0,
            "byteLength" : 1088,
            "byteOffset" : 12472,
            "target" : 34962
        },
        {
            "buffer" : 0,
            "byteLength" : 2176,
            "byteOffset" : 13560,
            "target" : 34962
        },
        {
            "buffer" : 0,
            "byteLength" : 180,
            "byteOffset" : 15736,
            "target" : 34963
        },
        {
            "buffer" : 0,
            "byteLength" : 672,
            "byteOffset" : 15916,
            "target" : 34962
        },
        {
            "buffer" : 0,
            "byteLength" : 672,
            "byteOffset" : 16588,
            "target" : 34962
        },
        {
            "buffer" : 0,
            "byteLength" : 896,
            "byteOffset" : 17260,
            "target" : 34962
        },
        {
            "buffer" : 0,
            "byteLength" : 448,
            "byteOffset" : 18156,
            "target" : 34962
        }
    ],
    "buffers" : [
        {
            "byteLength" : 18604,
            "uri" : "data:application/octet-stream;base64,"
        }
    ],
    "materials" : [
        {
            "name" : "collon",
            "pbrMetallicRoughness" : {
                "baseColorFactor" : [
                    0.6400000190734865,
                    0.6400000190734865,
                    0.6400000190734865,
                    1.0
                ],
                "metallicFactor" : 0.0
            }
        },
        {
            "name" : "rust",
            "pbrMetallicRoughness" : {
                "baseColorFactor" : [
                    0.6400000190734865,
                    0.6400000190734865,
                    0.6400000190734865,
                    1.0
                ],
                "metallicFactor" : 0.0
            }
        }
    ],
    "meshes" : [
        {
            "name" : "base",
            "primitives" : [
                {
                    "attributes" : {
                        "NORMAL" : 2,
                        "POSITION" : 1,
                        "TANGENT" : 3,
                        "TEXCOORD_0" : 4
                    },
                    "indices" : 0,
                    "material" : 0
                }
            ]
        },
        {
            "name" : "object_4.001",
            "primitives" : [
                {
                    "attributes" : {
                        "NORMAL" : 7,
                        "POSITION" : 6,
                        "TANGENT" : 8,
                        "TEXCOORD_0" : 9
                    },
                    "indices" : 5,
                    "material" : 0
                }
            ]
        },
        {
            "name" : "object_1.001",
            "primitives" : [
                {
                    "attributes" : {
                        "JOINTS_0" : 15,
                        "NORMAL" : 12,
                        "POSITION" : 11,
                        "TANGENT" : 13,
                        "TEXCOORD_0" : 14,
                        "WEIGHTS_0" : 16
                    },
                    "indices" : 10,
                    "material" : 0
                }
            ]
        },
        {
            "name" : "roter",
            "primitives" : [
                {
                    "attributes" : {
                        "NORMAL" : 19,
                        "POSITION" : 18,
                        "TANGENT" : 20,
                        "TEXCOORD_0" : 21
                    },
                    "indices" : 17,
                    "material" : 1
                }
            ]
        }
    ],
    "nodes" : [
        {
            "mesh" : 0,
            "name" : "base",
            "rotation" : [
                5.960464477539063e-08,
                1.1102232893229526e-16,
                1.1102230246251565e-16,
                1.0
            ],
            "translation" : [
                0.0,
                1.2597600221633911,
                -0.0
            ]
        },
        {
            "mesh" : 1,
            "name" : "lid",
            "rotation" : [
                0.7071067094802856,
                -6.299791976971392e-08,
                -0.7071068286895752,
                1.697680716006289e-07
            ],
            "scale" : [
                1.0,
                0.7100262641906738,
                1.0
            ],
            "translation" : [
                4.017644528175879e-07,
                -1.752328634262085,
                8.188401068309759e-08
            ]
        },
        {
            "children" : [
                1,
                3
            ],
            "mesh" : 3,
            "name" : "roter",
            "rotation" : [
                -2.119042363801782e-08,
                8.476168034121656e-08,
                -3.027207595707182e-09,
                1.0
            ],
            "translation" : [
                -9.566247172188014e-08,
                3.839779853820801,
                -1.8771885379464948e-08
            ]
        },
        {
            "mesh" : 2,
            "name" : "tube",
            "rotation" : [
                -3.400970172151574e-08,
                0.782181978225708,
                0.6230500936508179,
                -7.424740999795176e-08
            ],
            "scale" : [
                1.0,
                1.309615969657898,
                1.000002145767212
            ],
            "translation" : [
                -1.1654544351813456e-07,
                -0.27768778800964355,
                2.788132667541504
            ]
        }
    ],
    "scene" : 0,
    "scenes" : [
        {
            "name" : "Scene",
            "nodes" : [
                0,
                2
            ]
        }
    ]
}
