{
  "accessors": [
    {
      "bufferView": 2,
      "componentType": 5126,
      "count": 570,
      "max": [
        2.9702699184417725,
        7.2435197830200195,
        2.9142699241638184
      ],
      "min": [
        -7.0192298889160156,
        -0.049150001257658005,
        -4.5100798606872559
      ],
      "type": "VEC3"
    },
    {
      "bufferView": 2,
      "byteOffset": 6840,
      "componentType": 5126,
      "count": 570,
      "max": [
        0.98043262958526611,
        0.99954462051391602,
        0.98846709728240967
      ],
      "min": [
        -0.98256087303161621,
        -0.99923408031463623,
        -0.99817073345184326
      ],
      "type": "VEC3"
    },
    {
      "bufferView": 3,
      "componentType": 5126,
      "count": 570,
      "max": [
        0.99487727880477905,
        0.96876239776611328,
        0.99999535083770752,
        1
      ],
      "min": [
        -0.99868017435073853,
        -0.99850761890411377,
        -0.99999141693115234,
        -1
      ],
      "type": "VEC4"
    },
    {
      "bufferView": 1,
      "componentType": 5126,
      "count": 570,
      "max": [
        0.72232997417449951,
        0.46919000148773193
      ],
      "min": [
        0.024599999189376831,
        0.15112000703811646
      ],
      "type": "VEC2"
    },
    {
      "bufferView": 0,
      "componentType": 5125,
      "count": 900,
      "max": [
        569
      ],
      "min": [
        0
      ],
      "type": "SCALAR"
    }
  ],
  "asset": {
    "extras": {
      "author": "MrEmjeR (https://sketchfab.com/MatthijsDeRijk)",
      "license": "CC-BY-4.0 (http://creativecommons.org/licenses/by/4.0/)",
      "source": "https://sketchfab.com/models/6a130ae399534d0b8d7308fada5a619c",
      "title": "Low Poly Tree 1"
    },
    "generator": "Sketchfab-3.19.6",
    "version": "2.0"
  },
  "bufferViews": [
    {
      "buffer": 0,
      "byteLength": 3600,
      "byteOffset": 0,
      "name": "floatBufferViews",
      "target": 34963
    },
    {
      "buffer": 0,
      "byteLength": 4560,
      "byteOffset": 3600,
      "byteStride": 8,
      "name": "floatBufferViews",
      "target": 34962
    },
    {
      "buffer": 0,
      "byteLength": 13680,
      "byteOffset": 8160,
      "byteStride": 12,
      "name": "floatBufferViews",
      "target": 34962
    },
    {
      "buffer": 0,
      "byteLength": 9120,
      "byteOffset": 21840,
      "byteStride": 16,
      "name": "floatBufferViews",
      "target": 34962
    }
  ],
  "buffers": [
    {
      "byteLength": 30960,
      "uri": "scene.bin"
    }
  ],
  "images": [
    {
      "uri": "textures/Objects_baseColor.png"
    },
    {
      "uri": "textures/Objects_metallicRoughness.png"
    }
  ],
  "materials": [
    {
      "doubleSided": true,
      "emissiveFactor": [
        0,
        0,
        0
      ],
      "name": "Objects",
      "pbrMetallicRoughness": {
        "baseColorFactor": [
          1,
          1,
          1,
          1
        ],
        "baseColorTexture": {
          "index": 0,
          "texCoord": 0
        },
        "metallicFactor": 1,
        "metallicRoughnessTexture": {
          "index": 1,
          "texCoord": 0
        },
        "roughnessFactor": 1
      }
    }
  ],
  "meshes": [
    {
      "name": "VikingShipObjects.003_0",
      "primitives": [
        {
          "attributes": {
            "NORMAL": 1,
            "POSITION": 0,
            "TANGENT": 2,
            "TEXCOORD_0": 3
          },
          "indices": 4,
          "material": 0,
          "mode": 4
        }
      ]
    }
  ],
  "nodes": [
    {
      "children": [
        1
      ],
      "name": "RootNode (gltf orientation matrix)",
      "rotation": [
        -0.70710678118654746,
        -0,
        -0,
        0.70710678118654757
      ]
    },
    {
      "children": [
        2
      ],
      "name": "RootNode (model correction matrix)"
    },
    {
      "children": [
        3
      ],
      "name": "Root"
    },
    {
      "children": [
        4
      ],
      "matrix": [
        1,
        0,
        0,
        0,
        0,
        -0,
        1,
        0,
        0,
        -1,
        -0,
        0,
        -7.5680499999999995,
        0,
        0,
        1
      ],
      "name": "VikingShipObjects.003"
    },
    {
      "mesh": 0,
      "name": "VikingShipObjects.003_0"
    }
  ],
  "samplers": [
    {
      "magFilter": 9729,
      "minFilter": 9987,
      "wrapS": 10497,
      "wrapT": 10497
    }
  ],
  "scene": 0,
  "scenes": [
    {
      "name": "OSG_Scene",
      "nodes": [
        0
      ]
    }
  ],
  "textures": [
    {
      "sampler": 0,
      "source": 0
    },
    {
      "sampler": 0,
      "source": 1
    }
  ]
}

