<svg id="圖層_1" data-name="圖層 1" xmlns="http://www.w3.org/2000/svg" viewBox="0 0 512 512"><defs><style>.cls-1{fill:#fff;}.cls-2{fill:none;}</style></defs><title>swap-bag</title><path class="cls-1" d="M421,58.43c-2.09-7.25-9.87-16.37-20.53-23.18s-23.87-11.33-34.73-11.68c-.68,0-1.35,0-2,0-9.78.05-16.58,3-20.74,10.21C325.53,63.94,304.61,95.41,294.49,131c2.83.83,5.63,1.79,8.37,2.85a95.94,95.94,0,0,1,20.54,10.86c27.54-25.54,58.17-45.21,87.45-65.46C422.21,71.41,423.12,65.68,421,58.43Z"/><path class="cls-1" d="M294.79,24.29h0c-10-.18-17.79,6.39-23.92,20.24-8.94,20.19-10.21,53.44-1.45,83.19.16,0,.31,0,.47,0q3-.14,6,0c9.44-34.83,28-64.72,44-91.53C309.58,27.69,301,24.41,294.79,24.29Z"/><path class="cls-1" d="M240.53,116.66c-12.77-13.83-28.24-24.14-43-34.16L187,98c14.82,10,29.06,19.72,39.81,31.37A83.44,83.44,0,0,1,237.12,143a38.08,38.08,0,0,1,13.69-10.79c.41-.19.82-.36,1.23-.53A101.91,101.91,0,0,0,240.53,116.66Z"/><path class="cls-1" d="M424.35,99.69c-.92-1.65-2-3.29-3.08-4.92C392,115,362.7,133.92,336.92,157.55c.44.58.85,1.17,1.26,1.76,20.68-6.75,49.49-15.33,73.92-19.41,11.48-1.92,15.66-6.55,17.57-13.23S430.12,110,424.35,99.69Z"/><path class="cls-1" d="M197.33,142.64a87.19,87.19,0,0,0-44,12.77l9.56,16c21.66-12.89,42.62-14.14,65.23-4.57a49.92,49.92,0,0,1,3.73-15.21c.35-.8.73-1.58,1.12-2.35A96.39,96.39,0,0,0,197.33,142.64Z"/><path class="cls-1" d="M324.94,173.55c-3.46-7.27-15.21-17-28.86-22.27a68.82,68.82,0,0,0-20.52-4.61c-.82,0-1.63-.08-2.43-.1-5.58-.08-10.59.75-14.42,2.53a18.1,18.1,0,0,0-9.65,10,29.19,29.19,0,0,0-2,7.49c.46,0,.91,0,1.37,0a134.93,134.93,0,0,1,49.31,9.19,80.34,80.34,0,0,1,22.05,13.19c3.21-2.45,5-4.72,5.77-6.54C326.78,179.57,326.67,177.19,324.94,173.55Z"/><path class="cls-1" d="M373.22,329.65c-6.89-31.65-19.2-63.06-34.1-87.87s-32.61-42.66-48.06-48.59A117.36,117.36,0,0,0,248.38,185c-23,.08-44.73,7.39-65,19.78-32.45,19.84-60.57,53.13-80.35,90S71.9,372.26,71.85,405.38s10.26,57.26,32.81,67.78l.12.06h0c24.88,11.51,65.62,19.34,108.41,20.09S301,487.85,335.1,473.12c21.95-9.49,34.54-28.45,40.5-54.15S380.11,361.31,373.22,329.65ZM318.9,410.19c-5.86,10-15.35,18.57-28.21,25.41-9.94,5.29-21.89,9.48-35.61,12.5V466H218.14v-13.3l-2.77,0a144,144,0,0,1-28.94-2.62,125.62,125.62,0,0,1-26.23-8.21l-11.53-5.06,24.17-35.62,12.81,5.92a80.24,80.24,0,0,0,25.28,6.91q3.54.38,7.21.46V375.78c-9.15,0-16.92-.31-23.53-.91a66.82,66.82,0,0,1-30.53-10.12c-9.51-6.12-15.44-15.54-17.63-28-2.11-12.05-.38-23.16,5.12-33.13s14.76-18.72,27.31-25.59c10.81-5.91,24-10.41,39.26-13.39V249.53h36.94v12.53a144.62,144.62,0,0,1,16.16,1.88,153.24,153.24,0,0,1,24.3,6.34l13.09,4.56-23.54,35.25-12.34-4.25a114.9,114.9,0,0,0-17.67-4.64v35.66a216.61,216.61,0,0,1,23.16,1.57,66,66,0,0,1,29.68,11c8.93,6.24,14.52,15.49,16.62,27.49l0,.22A47.5,47.5,0,0,1,318.9,410.19Z"/><path class="cls-1" d="M218.14,303.24v33.59c-3-.08-5.68-.2-8-.37a30.46,30.46,0,0,1-12.15-3.1c-.77-.39-2.81-1.45-3.57-5.79-1.13-6.45.58-11.25,5.54-15.57C204.09,308.4,210.19,305.47,218.14,303.24Z"/><path class="cls-2" d="M324.58,377.18l0-.22c-2.1-12-7.69-21.25-16.62-27.49a66,66,0,0,0-29.68-11,216.61,216.61,0,0,0-23.16-1.57V301.2a114.9,114.9,0,0,1,17.67,4.64l12.34,4.25,23.54-35.25-13.09-4.56a153.24,153.24,0,0,0-24.3-6.34,144.62,144.62,0,0,0-16.16-1.88V249.53H218.14v15.12c-15.26,3-28.45,7.48-39.26,13.39-12.55,6.87-21.74,15.48-27.31,25.59s-7.23,21.08-5.12,33.13c2.19,12.45,8.12,21.87,17.63,28a66.82,66.82,0,0,0,30.53,10.12c6.61.6,14.38.9,23.53.91v38.74q-3.67-.09-7.21-.46a80.24,80.24,0,0,1-25.28-6.91l-12.81-5.92-24.17,35.62,11.53,5.06a125.62,125.62,0,0,0,26.23,8.21,144,144,0,0,0,28.94,2.62l2.77,0V466h36.94V448.1c13.72-3,25.67-7.21,35.61-12.5,12.86-6.84,22.35-15.39,28.21-25.41A47.5,47.5,0,0,0,324.58,377.18ZM210.13,336.46a30.46,30.46,0,0,1-12.15-3.1c-.77-.39-2.81-1.45-3.57-5.79-1.13-6.45.58-11.25,5.54-15.57,4.14-3.6,10.24-6.53,18.19-8.76v33.59C215.14,336.75,212.46,336.63,210.13,336.46Zm60.52,64.8c-3.75,3.1-9,5.73-15.57,7.87V375.62c2.44.1,4.67.26,6.69.46a25.26,25.26,0,0,1,11,3.32c.74.45,3,1.83,3.85,6.75C277.67,392.32,275.84,397,270.65,401.26Z"/><path class="cls-1" d="M270.65,401.26c-3.75,3.1-9,5.73-15.57,7.87V375.62c2.44.1,4.67.26,6.69.46a25.26,25.26,0,0,1,11,3.32c.74.45,3,1.83,3.85,6.75C277.67,392.32,275.84,397,270.65,401.26Z"/></svg>