<svg id="圖層_1" data-name="圖層 1" xmlns="http://www.w3.org/2000/svg" viewBox="0 0 512 512"><defs><style>.cls-1{fill:#fff;}</style></defs><title>swap-bag</title><path class="cls-1" d="M421,58.43c-2.09-7.25-9.87-16.37-20.53-23.18s-23.87-11.33-34.73-11.68c-.68,0-1.35,0-2,0-9.78.05-16.58,3-20.74,10.21C325.53,63.94,304.61,95.41,294.49,131c2.83.83,5.63,1.79,8.37,2.85a95.94,95.94,0,0,1,20.54,10.86c27.54-25.54,58.17-45.21,87.45-65.46C422.21,71.41,423.12,65.68,421,58.43ZM294.79,24.29h0c-10-.18-17.79,6.39-23.92,20.24-8.94,20.19-10.21,53.44-1.45,83.19.16,0,.31,0,.47,0q3-.14,6,0c9.44-34.83,28-64.72,44-91.53C309.58,27.69,301,24.41,294.79,24.29Zm-54.26,92.37c-12.77-13.83-28.24-24.14-43-34.16L187,98c14.82,10,29.06,19.72,39.81,31.37A83.44,83.44,0,0,1,237.12,143a38.08,38.08,0,0,1,13.69-10.79c.41-.19.82-.36,1.23-.53A101.91,101.91,0,0,0,240.53,116.66Zm183.82-17c-.92-1.65-2-3.29-3.08-4.92C392,115,362.7,133.92,336.92,157.55c.44.58.85,1.17,1.26,1.76,20.68-6.75,49.49-15.33,73.92-19.41,11.48-1.92,15.66-6.55,17.57-13.23S430.12,110,424.35,99.69Zm-227,42.95a87.19,87.19,0,0,0-44,12.77l9.56,16c21.66-12.89,42.62-14.14,65.23-4.57a49.92,49.92,0,0,1,3.73-15.21c.35-.8.73-1.58,1.12-2.35A96.39,96.39,0,0,0,197.33,142.64Zm127.61,30.91c-3.46-7.27-15.21-17-28.86-22.27a68.82,68.82,0,0,0-20.52-4.61c-.82,0-1.63-.08-2.43-.1-5.58-.08-10.59.75-14.42,2.53a18.1,18.1,0,0,0-9.65,10,29.19,29.19,0,0,0-2,7.49c.46,0,.91,0,1.37,0a134.93,134.93,0,0,1,49.31,9.19,80.34,80.34,0,0,1,22.05,13.19c3.21-2.45,5-4.72,5.77-6.54C326.78,179.57,326.67,177.19,324.94,173.55Zm-62,187.55A30.44,30.44,0,0,0,250,351.51c-1.65-.66-3.42-1.28-5.33-1.88V303.21a70.07,70.07,0,0,1,13.69,7.63l7.24-9.63a75.86,75.86,0,0,0-12.4-7.2,64.55,64.55,0,0,0-8.53-3.21V272h-9.17v16.8a57.81,57.81,0,0,0-8-.55,72.33,72.33,0,0,0-12.8,1.05V272h-8.78v19.64c-.75.28-1.49.57-2.21.88a32.32,32.32,0,0,0-15,12.4q-5.16,8.15-5.16,19.65v.08q0,11.43,5.5,17.86a30.06,30.06,0,0,0,13.34,9.12c1.11.38,2.3.75,3.57,1.13v48.37c-1.27-.36-2.51-.76-3.74-1.2A53.71,53.71,0,0,1,185,389.7l-7.41,9.72a62.77,62.77,0,0,0,13,8.52,63.77,63.77,0,0,0,15,5.12l.33.07V437h8.78V414.76h7.85a78.18,78.18,0,0,0,13-1V437h9.17V411.48c.85-.29,1.67-.61,2.48-.94a33.42,33.42,0,0,0,15.55-12.27q5.37-8.07,5.37-19.4v-.17Q268.06,367.62,262.91,361.1Zm-57-21.61a24.24,24.24,0,0,1-6.13-4.31q-4.17-4.05-4.18-11v-.08q0-11.6,8.36-18a22.38,22.38,0,0,1,1.95-1.34ZM235.49,402a58.57,58.57,0,0,1-13,1.3,64.82,64.82,0,0,1-7.85-.46V355c2.63.6,5.48,1.18,8.53,1.76l2.48.51a5.91,5.91,0,0,0,.63.13,3.06,3.06,0,0,1,.56.13q4.73.9,8.6,1.87Zm0-54.91q-2.37-.56-4.94-1.08c-.34-.06-.66-.13-1-.21a9.39,9.39,0,0,0-1-.22l-.81-.17-.72-.17q-7.22-1.42-12.37-2.79V301.11a51.92,51.92,0,0,1,12.8-1.43,41.94,41.94,0,0,1,8,.78ZM256,379.3q0,11.42-8.74,17.73a24.66,24.66,0,0,1-2.56,1.62V362.42a22,22,0,0,1,7.5,5.45q3.79,4.28,3.8,11.34Z"/><path class="cls-1" d="M373.22,329.65c-6.89-31.65-19.2-63.06-34.1-87.87s-32.61-42.66-48.06-48.59A117.36,117.36,0,0,0,248.38,185c-23,.08-44.73,7.39-65,19.78-32.45,19.84-60.57,53.13-80.35,90S71.9,372.26,71.85,405.38s10.26,57.26,32.81,67.78l.12.06h0c24.88,11.51,65.62,19.34,108.41,20.09S301,487.85,335.1,473.12c21.95-9.49,34.54-28.45,40.5-54.15S380.11,361.31,373.22,329.65ZM268.06,378.87q0,11.34-5.37,19.4a33.42,33.42,0,0,1-15.55,12.27c-.81.33-1.63.65-2.48.94V437h-9.17V413.76a78.18,78.18,0,0,1-13,1h-7.85V437h-8.78V413.13l-.33-.07a63.77,63.77,0,0,1-15-5.12,62.77,62.77,0,0,1-13-8.52L185,389.7a53.71,53.71,0,0,0,17.14,10.23c1.23.44,2.47.84,3.74,1.2V352.76c-1.27-.38-2.46-.75-3.57-1.13A30.06,30.06,0,0,1,189,342.51q-5.5-6.43-5.5-17.86v-.08q0-11.51,5.16-19.65a32.32,32.32,0,0,1,15-12.4c.72-.31,1.46-.6,2.21-.88V272h8.78v17.3a72.33,72.33,0,0,1,12.8-1.05,57.81,57.81,0,0,1,8,.55V272h9.17v18.8a64.55,64.55,0,0,1,8.53,3.21,75.86,75.86,0,0,1,12.4,7.2l-7.24,9.63a70.07,70.07,0,0,0-13.69-7.63v46.42c1.91.6,3.68,1.22,5.33,1.88a30.44,30.44,0,0,1,12.92,9.59q5.14,6.51,5.15,17.6Z"/><path class="cls-1" d="M256,379.21v.09q0,11.42-8.74,17.73a24.66,24.66,0,0,1-2.56,1.62V362.42a22,22,0,0,1,7.5,5.45Q256,372.15,256,379.21Z"/><path class="cls-1" d="M235.49,359.43V402a58.57,58.57,0,0,1-13,1.3,64.82,64.82,0,0,1-7.85-.46V355c2.63.6,5.48,1.18,8.53,1.76l2.48.51a5.91,5.91,0,0,0,.63.13,3.06,3.06,0,0,1,.56.13Q231.62,358.46,235.49,359.43Z"/><path class="cls-1" d="M205.91,304.73v34.76a24.24,24.24,0,0,1-6.13-4.31q-4.17-4.05-4.18-11v-.08q0-11.6,8.36-18A22.38,22.38,0,0,1,205.91,304.73Z"/><path class="cls-1" d="M235.49,300.46v46.67q-2.37-.56-4.94-1.08c-.34-.06-.66-.13-1-.21a9.39,9.39,0,0,0-1-.22l-.81-.17-.72-.17q-7.22-1.42-12.37-2.79V301.11a51.92,51.92,0,0,1,12.8-1.43A41.94,41.94,0,0,1,235.49,300.46Z"/></svg>