{
    "accessors" : [
        {
            "bufferView" : 0,
            "componentType" : 5123,
            "count" : 300,
            "max" : [
                201
            ],
            "min" : [
                0
            ],
            "type" : "SCALAR"
        },
        {
            "bufferView" : 1,
            "componentType" : 5126,
            "count" : 202,
            "max" : [
                15.991597175598145,
                2.001472234725952,
                15.741836547851562
            ],
            "min" : [
                -14.512319564819336,
                -2.0033247470855713,
                -14.623252868652344
            ],
            "type" : "VEC3"
        },
        {
            "bufferView" : 2,
            "componentType" : 5126,
            "count" : 202,
            "max" : [
                0.9896549582481384,
                1.0,
                0.9990730881690979
            ],
            "min" : [
                -0.9999600052833557,
                -0.9999999403953552,
                -0.9999599456787109
            ],
            "type" : "VEC3"
        },
        {
            "bufferView" : 3,
            "componentType" : 5126,
            "count" : 202,
            "max" : [
                0.9920452237129211,
                24.861434936523438
            ],
            "min" : [
                0.005883735604584217,
                -23.814481735229492
            ],
            "type" : "VEC2"
        },
        {
            "bufferView" : 4,
            "componentType" : 5123,
            "count" : 96,
            "max" : [
                59
            ],
            "min" : [
                0
            ],
            "type" : "SCALAR"
        },
        {
            "bufferView" : 5,
            "componentType" : 5126,
            "count" : 60,
            "max" : [
                23.734249114990234,
                20.55446434020996,
                -0.36924314498901367
            ],
            "min" : [
                -23.734249114990234,
                -20.554460525512695,
                -50.00542449951172
            ],
            "type" : "VEC3"
        },
        {
            "bufferView" : 6,
            "componentType" : 5126,
            "count" : 60,
            "max" : [
                0.8660019636154175,
                0.999972939491272,
                1.0
            ],
            "min" : [
                -0.8660019636154175,
                -0.999972939491272,
                -0.9999999403953552
            ],
            "type" : "VEC3"
        },
        {
            "bufferView" : 7,
            "componentType" : 5126,
            "count" : 60,
            "max" : [
                1.7729554176330566,
                1.3914270401000977
            ],
            "min" : [
                -0.7782200574874878,
                -0.35916364192962646
            ],
            "type" : "VEC2"
        },
        {
            "bufferView" : 8,
            "componentType" : 5123,
            "count" : 450,
            "max" : [
                382
            ],
            "min" : [
                0
            ],
            "type" : "SCALAR"
        },
        {
            "bufferView" : 9,
            "componentType" : 5126,
            "count" : 383,
            "max" : [
                22.028982162475586,
                22.042192459106445,
                -50.07014083862305
            ],
            "min" : [
                -22.038341522216797,
                -21.999998092651367,
                -67.08584594726562
            ],
            "type" : "VEC3"
        },
        {
            "bufferView" : 10,
            "componentType" : 5126,
            "count" : 383,
            "max" : [
                1.0,
                0.9999898672103882,
                1.0
            ],
            "min" : [
                -0.9999778270721436,
                -0.9999088644981384,
                -1.0
            ],
            "type" : "VEC3"
        },
        {
            "bufferView" : 11,
            "componentType" : 5126,
            "count" : 383,
            "max" : [
                1.7787224054336548,
                1.7519764304161072
            ],
            "min" : [
                -2.2140696048736572,
                -1.3280055522918701
            ],
            "type" : "VEC2"
        },
        {
            "bufferView" : 12,
            "componentType" : 5126,
            "count" : 7,
            "max" : [
                2.5
            ],
            "min" : [
                0.0
            ],
            "type" : "SCALAR"
        },
        {
            "bufferView" : 13,
            "componentType" : 5126,
            "count" : 21,
            "max" : [
                0.0,
                0.0011715637519955635,
                -0.0
            ],
            "min" : [
                -0.6702322363853455,
                0.0,
                -116.46730041503906
            ],
            "type" : "VEC3"
        },
        {
            "bufferView" : 14,
            "componentType" : 5126,
            "count" : 61,
            "max" : [
                2.5
            ],
            "min" : [
                0.0
            ],
            "type" : "SCALAR"
        },
        {
            "bufferView" : 15,
            "componentType" : 5126,
            "count" : 61,
            "max" : [
                2.8168309995635354e-07,
                1.6570466243592819e-07,
                0.9993938207626343,
                1.0
            ],
            "min" : [
                -1.208151303444538e-07,
                -1.657540451560635e-07,
                -1.0,
                -4.371139183945161e-08
            ],
            "type" : "VEC4"
        }
    ],
    "animations" : [
        {
            "channels" : [
                {
                    "sampler" : 0,
                    "target" : {
                        "node" : 1,
                        "path" : "translation"
                    }
                },
                {
                    "sampler" : 1,
                    "target" : {
                        "node" : 1,
                        "path" : "rotation"
                    }
                }
            ],
            "name" : "object_3Action",
            "samplers" : [
                {
                    "input" : 12,
                    "interpolation" : "CUBICSPLINE",
                    "output" : 13
                },
                {
                    "input" : 14,
                    "interpolation" : "LINEAR",
                    "output" : 15
                }
            ]
        }
    ],
    "asset" : {
        "generator" : "Khronos Blender glTF 2.0 exporter",
        "version" : "2.0"
    },
    "bufferViews" : [
        {
            "buffer" : 0,
            "byteLength" : 600,
            "byteOffset" : 0,
            "target" : 34963
        },
        {
            "buffer" : 0,
            "byteLength" : 2424,
            "byteOffset" : 600,
            "target" : 34962
        },
        {
            "buffer" : 0,
            "byteLength" : 2424,
            "byteOffset" : 3024,
            "target" : 34962
        },
        {
            "buffer" : 0,
            "byteLength" : 1616,
            "byteOffset" : 5448,
            "target" : 34962
        },
        {
            "buffer" : 0,
            "byteLength" : 192,
            "byteOffset" : 7064,
            "target" : 34963
        },
        {
            "buffer" : 0,
            "byteLength" : 720,
            "byteOffset" : 7256,
            "target" : 34962
        },
        {
            "buffer" : 0,
            "byteLength" : 720,
            "byteOffset" : 7976,
            "target" : 34962
        },
        {
            "buffer" : 0,
            "byteLength" : 480,
            "byteOffset" : 8696,
            "target" : 34962
        },
        {
            "buffer" : 0,
            "byteLength" : 900,
            "byteOffset" : 9176,
            "target" : 34963
        },
        {
            "buffer" : 0,
            "byteLength" : 4596,
            "byteOffset" : 10076,
            "target" : 34962
        },
        {
            "buffer" : 0,
            "byteLength" : 4596,
            "byteOffset" : 14672,
            "target" : 34962
        },
        {
            "buffer" : 0,
            "byteLength" : 3064,
            "byteOffset" : 19268,
            "target" : 34962
        },
        {
            "buffer" : 0,
            "byteLength" : 28,
            "byteOffset" : 22332
        },
        {
            "buffer" : 0,
            "byteLength" : 252,
            "byteOffset" : 22360
        },
        {
            "buffer" : 0,
            "byteLength" : 244,
            "byteOffset" : 22612
        },
        {
            "buffer" : 0,
            "byteLength" : 976,
            "byteOffset" : 22856
        }
    ],
    "buffers" : [
        {
            "byteLength" : 23832,
            "uri" : "data:application/octet-stream;base64,"
        }
    ],
    "images" : [
        {
            "mimeType" : "image/jpeg",
            "name" : "brick",
            "uri" : "data:image/jpeg;base64,"
        },
        {
            "mimeType" : "image/png",
            "name" : "coin",
            "uri" : "data:image/png;base64,"
        },
        {
            "mimeType" : "image/jpeg",
            "name" : "black",
            "uri" : "data:image/jpeg;base64,"
        }
    ],
    "materials" : [
        {
            "name" : "brick",
            "pbrMetallicRoughness" : {
                "baseColorFactor" : [
                    0.6400000190734865,
                    0.6400000190734865,
                    0.6400000190734865,
                    1.0
                ],
                "baseColorTexture" : {
                    "index" : 0
                },
                "metallicFactor" : 0.0
            }
        },
        {
            "name" : "coin",
            "pbrMetallicRoughness" : {
                "baseColorFactor" : [
                    0.6400000190734865,
                    0.6400000190734865,
                    0.6400000190734865,
                    1.0
                ],
                "baseColorTexture" : {
                    "index" : 1
                },
                "metallicFactor" : 0.0
            }
        },
        {
            "name" : "side",
            "pbrMetallicRoughness" : {
                "baseColorFactor" : [
                    0.6400000190734865,
                    0.6400000190734865,
                    0.6400000190734865,
                    1.0
                ],
                "baseColorTexture" : {
                    "index" : 2
                },
                "metallicFactor" : 0.0
            }
        }
    ],
    "meshes" : [
        {
            "name" : "object_3",
            "primitives" : [
                {
                    "attributes" : {
                        "NORMAL" : 2,
                        "POSITION" : 1,
                        "TEXCOORD_0" : 3
                    },
                    "indices" : 0,
                    "material" : 1
                }
            ]
        },
        {
            "name" : "object_1",
            "primitives" : [
                {
                    "attributes" : {
                        "NORMAL" : 6,
                        "POSITION" : 5,
                        "TEXCOORD_0" : 7
                    },
                    "indices" : 4,
                    "material" : 0
                }
            ]
        },
        {
            "name" : "object_2",
            "primitives" : [
                {
                    "attributes" : {
                        "NORMAL" : 10,
                        "POSITION" : 9,
                        "TEXCOORD_0" : 11
                    },
                    "indices" : 8,
                    "material" : 2
                }
            ]
        }
    ],
    "nodes" : [
        {
            "children" : [
                1,
                2
            ],
            "mesh" : 1,
            "name" : "base",
            "rotation" : [
                0.7071068286895752,
                0.0,
                -0.0,
                0.7071067094802856
            ],
            "scale" : [
                0.06654173135757446,
                0.06654173135757446,
                0.06654173135757446
            ],
            "translation" : [
                0.0,
                0.0,
                7.105427357601002e-15
            ]
        },
        {
            "mesh" : 0,
            "name" : "coin",
            "rotation" : [
                -7.105427357601002e-15,
                0.0,
                -0.0,
                1.0
            ],
            "translation" : [
                -0.6702322363853455,
                0.0011715637519955635,
                -89.63450622558594
            ]
        },
        {
            "mesh" : 2,
            "name" : "plate",
            "rotation" : [
                -7.105427357601002e-15,
                0.0,
                -0.0,
                1.0
            ]
        }
    ],
    "samplers" : [
        {}
    ],
    "scene" : 0,
    "scenes" : [
        {
            "name" : "Scene",
            "nodes" : [
                0
            ]
        }
    ],
    "textures" : [
        {
            "sampler" : 0,
            "source" : 0
        },
        {
            "sampler" : 0,
            "source" : 1
        },
        {
            "sampler" : 0,
            "source" : 2
        }
    ]
}
