{ 
"accessors" : [ 
{ 
"bufferView" : 0, 
"componentType" : 5123, 
"count" : 330, 
"max" : [ 
135 
], 
"min" : [ 
0 
], 
"type" : "SCALAR" 
}, 
{ 
"bufferView" : 1, 
"componentType" : 5126, 
"count" : 136, 
"max" : [ 
0.7621994018554688, 
3.882518768310547, 
0.7571817636489868 
], 
"min" : [ 
-0.7621994018554688, 
-3.882518768310547, 
-0.7571817636489868 
], 
"type" : "VEC3" 
}, 
{ 
"bufferView" : 2, 
"componentType" : 5126, 
"count" : 136, 
"max" : [ 
0.9959105253219604, 
0.999969482421875, 
0.983306348323822 
], 
"min" : [ 
-0.9921262264251709, 
-1.0, 
-0.9973754286766052 
], 
"type" : "VEC3" 
}, 
{ 
"bufferView" : 3, 
"componentType" : 5126, 
"count" : 136, 
"max" : [ 
0.993443489074707, 
0.13528408110141754, 
0.9882950782775879, 
1.0 
], 
"min" : [ 
-0.9983737468719482, 
-0.999984860420227, 
-0.9924546480178833, 
1.0 
], 
"type" : "VEC4" 
}, 
{ 
"bufferView" : 4, 
"componentType" : 5126, 
"count" : 136, 
"max" : [ 
0.999783456325531, 
0.9997834286477882 
], 
"min" : [ 
0.0002165713522117585, 
0.24897092580795288 
], 
"type" : "VEC2" 
}, 
{ 
"bufferView" : 5, 
"componentType" : 5123, 
"count" : 136, 
"max" : [ 
0, 
0, 
0, 
0 
], 
"min" : [ 
0, 
0, 
0, 
0 
], 
"type" : "VEC4" 
}, 
{ 
"bufferView" : 6, 
"componentType" : 5126, 
"count" : 136, 
"max" : [ 
0.0, 
0.0, 
0.0, 
0.0 
], 
"min" : [ 
0.0, 
0.0, 
0.0, 
0.0 
], 
"type" : "VEC4" 
}, 
{ 
"bufferView" : 7, 
"componentType" : 5123, 
"count" : 129, 
"max" : [ 
54 
], 
"min" : [ 
0 
], 
"type" : "SCALAR" 
}, 
{ 
"bufferView" : 8, 
"componentType" : 5126, 
"count" : 55, 
"max" : [ 
2.841383218765259, 
3.413292169570923, 
0.9854733943939209 
], 
"min" : [ 
-2.7996766567230225, 
0.5478594303131104, 
-1.003544807434082 
], 
"type" : "VEC3" 
}, 
{ 
"bufferView" : 9, 
"componentType" : 5126, 
"count" : 55, 
"max" : [ 
0.9955748319625854, 
0.999664306640625, 
0.29126864671707153 
], 
"min" : [ 
-0.964873194694519, 
0.08630634844303131, 
-0.5110019445419312 
], 
"type" : "VEC3" 
}, 
{ 
"bufferView" : 10, 
"componentType" : 5126, 
"count" : 55, 
"max" : [ 
0.5585339665412903, 
0.5271462202072144, 
0.9989543557167053, 
1.0 
], 
"min" : [ 
-0.3311862349510193, 
-0.5533782243728638, 
-0.9999856352806091, 
1.0 
], 
"type" : "VEC4" 
}, 
{ 
"bufferView" : 11, 
"componentType" : 5126, 
"count" : 55, 
"max" : [ 
1.0000001192092896, 
1.0 
], 
"min" : [ 
0.0, 
5.960464477539063e-08 
], 
"type" : "VEC2" 
}, 
{ 
"bufferView" : 12, 
"componentType" : 5123, 
"count" : 150, 
"max" : [ 
55 
], 
"min" : [ 
0 
], 
"type" : "SCALAR" 
}, 
{ 
"bufferView" : 13, 
"componentType" : 5126, 
"count" : 56, 
"max" : [ 
4.5527544021606445, 
1.2597647905349731, 
4.568236351013184 
], 
"min" : [ 
-4.5527544021606445, 
-1.2597647905349731, 
-4.568236351013184 
], 
"type" : "VEC3" 
}, 
{ 
"bufferView" : 14, 
"componentType" : 5126, 
"count" : 56, 
"max" : [ 
0.8992583751678467, 
1.0, 
0.8240302801132202 
], 
"min" : [ 
-0.8474684953689575, 
-0.999969482421875, 
-0.8338267207145691 
], 
"type" : "VEC3" 
}, 
{ 
"bufferView" : 15, 
"componentType" : 5126, 
"count" : 56, 
"max" : [ 
0.9989137649536133, 
0.2781897485256195, 
0.9823641180992126, 
-1.0 
], 
"min" : [ 
-1.0, 
-0.24070006608963013, 
-0.9992939829826355, 
-1.0 
], 
"type" : "VEC4" 
}, 
{ 
"bufferView" : 16, 
"componentType" : 5126, 
"count" : 56, 
"max" : [ 
0.8437423706054688, 
0.9541945457458496 
], 
"min" : [ 
-0.21367378532886505, 
0.14659595489501953 
], 
"type" : "VEC2" 
}, 
{ 
"bufferView" : 17, 
"componentType" : 5123, 
"count" : 180, 
"max" : [ 
55 
], 
"min" : [ 
0 
], 
"type" : "SCALAR" 
}, 
{ 
"bufferView" : 18, 
"componentType" : 5126, 
"count" : 56, 
"max" : [ 
3.0268759727478027, 
1.356196403503418, 
2.927161693572998 
], 
"min" : [ 
-3.0268759727478027, 
-1.3561973571777344, 
-2.9271621704101562 
], 
"type" : "VEC3" 
}, 
{ 
"bufferView" : 19, 
"componentType" : 5126, 
"count" : 56, 
"max" : [ 
0.999969482421875, 
0.8781090974807739, 
0.8112735152244568 
], 
"min" : [ 
-0.999969482421875, 
-0.999969482421875, 
-0.8112735152244568 
], 
"type" : "VEC3" 
}, 
{ 
"bufferView" : 20, 
"componentType" : 5126, 
"count" : 56, 
"max" : [ 
0.9999983906745911, 
0.0994286835193634, 
1.0, 
1.0 
], 
"min" : [ 
-0.9999982714653015, 
-0.09838195890188217, 
-1.0, 
1.0 
], 
"type" : "VEC4" 
}, 
{ 
"bufferView" : 21, 
"componentType" : 5126, 
"count" : 56, 
"max" : [ 
0.965872585773468, 
1.7572646737098694 
], 
"min" : [ 
0.08255928009748459, 
0.016972064971923828 
], 
"type" : "VEC2" 
}, 
{ 
"bufferView" : 22, 
"componentType" : 5126, 
"count" : 2, 
"max" : [ 
1.25 
], 
"min" : [ 
0.041666666666666664 
], 
"type" : "SCALAR" 
}, 
{ 
"bufferView" : 23, 
"componentType" : 5126, 
"count" : 6, 
"max" : [ 
0.0, 
1.2597600221633911, 
-0.0 
], 
"min" : [ 
0.0, 
0.0, 
-0.0 
], 
"type" : "VEC3" 
}, 
{ 
"bufferView" : 24, 
"componentType" : 5126, 
"count" : 30, 
"max" : [ 
1.25 
], 
"min" : [ 
0.041666666666666664 
], 
"type" : "SCALAR" 
}, 
{ 
"bufferView" : 25, 
"componentType" : 5126, 
"count" : 30, 
"max" : [ 
5.960464477539063e-08, 
1.1102235540207486e-16, 
1.1102230246251565e-16, 
1.0 
], 
"min" : [ 
5.960464477539063e-08, 
1.1102235540207486e-16, 
1.1102230246251565e-16, 
1.0 
], 
"type" : "VEC4" 
}, 
{ 
"bufferView" : 26, 
"componentType" : 5126, 
"count" : 2, 
"max" : [ 
1.25 
], 
"min" : [ 
0.041666666666666664 
], 
"type" : "SCALAR" 
}, 
{ 
"bufferView" : 27, 
"componentType" : 5126, 
"count" : 6, 
"max" : [ 
1.0, 
1.0, 
1.0 
], 
"min" : [ 
0.0, 
0.0, 
0.0 
], 
"type" : "VEC3" 
}, 
{ 
"bufferView" : 28, 
"componentType" : 5126, 
"count" : 2, 
"max" : [ 
0.041666666666666664 
], 
"min" : [ 
0.0 
], 
"type" : "SCALAR" 
}, 
{ 
"bufferView" : 29, 
"componentType" : 5126, 
"count" : 6, 
"max" : [ 
4.0168112036553794e-07, 
0.0, 
8.79271837561646e-08 
], 
"min" : [ 
0.0, 
-1.738558292388916, 
-0.0 
], 
"type" : "VEC3" 
}, 
{ 
"bufferView" : 30, 
"componentType" : 5126, 
"count" : 16, 
"max" : [ 
0.625 
], 
"min" : [ 
0.0 
], 
"type" : "SCALAR" 
}, 
{ 
"bufferView" : 31, 
"componentType" : 5126, 
"count" : 16, 
"max" : [ 
0.7071066498756409, 
-4.2146808709730976e-08, 
9.81876127070791e-08, 
0.7071065902709961 
], 
"min" : [ 
-1.9639556114725565e-07, 
-0.7071070075035095, 
-0.7071070671081543, 
1.4891702448949218e-07 
], 
"type" : "VEC4" 
}, 
{ 
"bufferView" : 32, 
"componentType" : 5126, 
"count" : 3, 
"max" : [ 
0.625 
], 
"min" : [ 
0.0 
], 
"type" : "SCALAR" 
}, 
{ 
"bufferView" : 33, 
"componentType" : 5126, 
"count" : 9, 
"max" : [ 
1.0, 
0.9296829104423523, 
1.0 
], 
"min" : [ 
0.0, 
0.0, 
0.0 
], 
"type" : "VEC3" 
}, 
{ 
"bufferView" : 34, 
"componentType" : 5126, 
"count" : 2, 
"max" : [ 
1.25 
], 
"min" : [ 
0.0 
], 
"type" : "SCALAR" 
}, 
{ 
"bufferView" : 35, 
"componentType" : 5126, 
"count" : 6, 
"max" : [ 
5.767016020286064e-08, 
1.1379905939102173, 
7.605201721191406 
], 
"min" : [ 
-2.428479319860344e-06, 
0.0, 
-7.379547119140625 
], 
"type" : "VEC3" 
}, 
{ 
"bufferView" : 36, 
"componentType" : 5126, 
"count" : 31, 
"max" : [ 
1.25 
], 
"min" : [ 
0.0 
], 
"type" : "SCALAR" 
}, 
{ 
"bufferView" : 37, 
"componentType" : 5126, 
"count" : 31, 
"max" : [ 
-3.0272087059302066e-09, 
1.0, 
2.11783941495014e-08, 
1.0 
], 
"min" : [ 
-2.1396925120598098e-08, 
8.476168034121656e-08, 
-3.027207595707182e-09, 
-4.371138828673793e-08 
], 
"type" : "VEC4" 
}, 
{ 
"bufferView" : 38, 
"componentType" : 5126, 
"count" : 4, 
"max" : [ 
1.25 
], 
"min" : [ 
0.0 
], 
"type" : "SCALAR" 
}, 
{ 
"bufferView" : 39, 
"componentType" : 5126, 
"count" : 12, 
"max" : [ 
1.0166645050048828, 
1.8003984689712524, 
2.788132429122925 
], 
"min" : [ 
-1.165454364127072e-07, 
-1.5965960025787354, 
-2.643688201904297 
], 
"type" : "VEC3" 
}, 
{ 
"bufferView" : 40, 
"componentType" : 5126, 
"count" : 31, 
"max" : [ 
1.25 
], 
"min" : [ 
0.0 
], 
"type" : "SCALAR" 
}, 
{ 
"bufferView" : 41, 
"componentType" : 5126, 
"count" : 31, 
"max" : [ 
0.013438529334962368, 
0.9827945828437805, 
0.6230499148368835, 
0.010742224752902985 
], 
"min" : [ 
-7.456223194424183e-09, 
0.7716246247291565, 
-0.6360782384872437, 
-1.533735201064701e-07 
], 
"type" : "VEC4" 
}, 
{ 
"bufferView" : 42, 
"componentType" : 5126, 
"count" : 3, 
"max" : [ 
1.25 
], 
"min" : [ 
0.0 
], 
"type" : "SCALAR" 
}, 
{ 
"bufferView" : 43, 
"componentType" : 5126, 
"count" : 9, 
"max" : [ 
1.0, 
1.309615969657898, 
1.000002145767212 
], 
"min" : [ 
0.0, 
0.0, 
0.0 
], 
"type" : "VEC3" 
} 
], 
"animations"
: [ 
{ 
"channels" : [ 
{ 
"sampler" : 0, 
"target" : { 
"node" : 4, 
"path" : "translation" 
} 
}, 
{ 
"sampler" : 1, 
"target" : { 
"node" : 4, 
"path" : "rotation" 
} 
}, 
{ 
"sampler" : 2, 
"target" : { 
"node" : 4, 
"path" : "scale" 
} 
} 
,{ 
"sampler" : 3, 
"target" : { 
"node" : 2, 
"path" : "translation" 
} 
} 
,{ 
"sampler" : 4, 
"target" : { 
"node" : 3, 
"path" : "rotation" 
} 
} 
,{ 
"sampler" : 5, 
"target" : { 
"node" : 0, 
"path" : "translation" 
} 
}, 
{ 
"sampler" : 6, 
"target" : { 
"node" : 0, 
"path" : "rotation" 
} 
}, 
{ 
"sampler" : 7, 
"target" : { 
"node" : 0, 
"path" : "scale" 
} 
} 
,{ 
"sampler" : 8, 
"target" : { 
"node" : 1, 
"path" : "translation" 
} 
}, 
{ 
"sampler" : 9, 
"target" : { 
"node" : 1, 
"path" : "rotation" 
} 
}, 
{ 
"sampler" : 10, 
"target" : { 
"node" : 1, 
"path" : "scale" 
} 
} 
],
"name" : "open",
"samplers" : [ 
{ 
"input" : 38, 
"interpolation" : "CUBICSPLINE", 
"output" : 39 
}, 
{ 
"input" : 40, 
"interpolation" : "LINEAR", 
"output" : 41 
}, 
{ 
"input" : 42, 
"interpolation" : "CUBICSPLINE", 
"output" : 43 
} 
,{ 
"input" : 34, 
"interpolation" : "CUBICSPLINE", 
"output" : 35 
} 
,{ 
"input" : 36, 
"interpolation" : "LINEAR", 
"output" : 37 
} 
,{ 
"input" : 22, 
"interpolation" : "CUBICSPLINE", 
"output" : 23 
}, 
{ 
"input" : 24, 
"interpolation" : "LINEAR", 
"output" : 25 
}, 
{ 
"input" : 26, 
"interpolation" : "CUBICSPLINE", 
"output" : 27 
} 
,{ 
"input" : 28, 
"interpolation" : "CUBICSPLINE", 
"output" : 29 
}, 
{ 
"input" : 30, 
"interpolation" : "LINEAR", 
"output" : 31 
}, 
{ 
"input" : 32, 
"interpolation" : "CUBICSPLINE", 
"output" : 33 
} 
]
}
],
"asset": { 
"generator" : "Khronos Blender glTF 2.0 exporter", 
"version" : "2.0" 
}, 
"bufferViews" : [ 
{ 
"buffer" : 0, 
"byteLength" : 660, 
"byteOffset" : 0, 
"target" : 34963 
}, 
{ 
"buffer" : 0, 
"byteLength" : 1632, 
"byteOffset" : 660, 
"target" : 34962 
}, 
{ 
"buffer" : 0, 
"byteLength" : 1632, 
"byteOffset" : 2292, 
"target" : 34962 
}, 
{ 
"buffer" : 0, 
"byteLength" : 2176, 
"byteOffset" : 3924, 
"target" : 34962 
}, 
{ 
"buffer" : 0, 
"byteLength" : 1088, 
"byteOffset" : 6100, 
"target" : 34962 
}, 
{ 
"buffer" : 0, 
"byteLength" : 1088, 
"byteOffset" : 7188, 
"target" : 34962 
}, 
{ 
"buffer" : 0, 
"byteLength" : 2176, 
"byteOffset" : 8276, 
"target" : 34962 
}, 
{ 
"buffer" : 0, 
"byteLength" : 258, 
"byteOffset" : 10452, 
"target" : 34963 
}, 
{ 
"buffer" : 0, 
"byteLength" : 660, 
"byteOffset" : 10712, 
"target" : 34962 
}, 
{ 
"buffer" : 0, 
"byteLength" : 660, 
"byteOffset" : 11372, 
"target" : 34962 
}, 
{ 
"buffer" : 0, 
"byteLength" : 880, 
"byteOffset" : 12032, 
"target" : 34962 
}, 
{ 
"buffer" : 0, 
"byteLength" : 440, 
"byteOffset" : 12912, 
"target" : 34962 
}, 
{ 
"buffer" : 0, 
"byteLength" : 300, 
"byteOffset" : 13352, 
"target" : 34963 
}, 
{ 
"buffer" : 0, 
"byteLength" : 672, 
"byteOffset" : 13652, 
"target" : 34962 
}, 
{ 
"buffer" : 0, 
"byteLength" : 672, 
"byteOffset" : 14324, 
"target" : 34962 
}, 
{ 
"buffer" : 0, 
"byteLength" : 896, 
"byteOffset" : 14996, 
"target" : 34962 
}, 
{ 
"buffer" : 0, 
"byteLength" : 448, 
"byteOffset" : 15892, 
"target" : 34962 
}, 
{ 
"buffer" : 0, 
"byteLength" : 360, 
"byteOffset" : 16340, 
"target" : 34963 
}, 
{ 
"buffer" : 0, 
"byteLength" : 672, 
"byteOffset" : 16700, 
"target" : 34962 
}, 
{ 
"buffer" : 0, 
"byteLength" : 672, 
"byteOffset" : 17372, 
"target" : 34962 
}, 
{ 
"buffer" : 0, 
"byteLength" : 896, 
"byteOffset" : 18044, 
"target" : 34962 
}, 
{ 
"buffer" : 0, 
"byteLength" : 448, 
"byteOffset" : 18940, 
"target" : 34962 
}, 
{ 
"buffer" : 0, 
"byteLength" : 8, 
"byteOffset" : 19388 
}, 
{ 
"buffer" : 0, 
"byteLength" : 72, 
"byteOffset" : 19396 
}, 
{ 
"buffer" : 0, 
"byteLength" : 120, 
"byteOffset" : 19468 
}, 
{ 
"buffer" : 0, 
"byteLength" : 480, 
"byteOffset" : 19588 
}, 
{ 
"buffer" : 0, 
"byteLength" : 8, 
"byteOffset" : 20068 
}, 
{ 
"buffer" : 0, 
"byteLength" : 72, 
"byteOffset" : 20076 
}, 
{ 
"buffer" : 0, 
"byteLength" : 8, 
"byteOffset" : 20148 
}, 
{ 
"buffer" : 0, 
"byteLength" : 72, 
"byteOffset" : 20156 
}, 
{ 
"buffer" : 0, 
"byteLength" : 64, 
"byteOffset" : 20228 
}, 
{ 
"buffer" : 0, 
"byteLength" : 256, 
"byteOffset" : 20292 
}, 
{ 
"buffer" : 0, 
"byteLength" : 12, 
"byteOffset" : 20548 
}, 
{ 
"buffer" : 0, 
"byteLength" : 108, 
"byteOffset" : 20560 
}, 
{ 
"buffer" : 0, 
"byteLength" : 8, 
"byteOffset" : 20668 
}, 
{ 
"buffer" : 0, 
"byteLength" : 72, 
"byteOffset" : 20676 
}, 
{ 
"buffer" : 0, 
"byteLength" : 124, 
"byteOffset" : 20748 
}, 
{ 
"buffer" : 0, 
"byteLength" : 496, 
"byteOffset" : 20872 
}, 
{ 
"buffer" : 0, 
"byteLength" : 16, 
"byteOffset" : 21368 
}, 
{ 
"buffer" : 0, 
"byteLength" : 144, 
"byteOffset" : 21384 
}, 
{ 
"buffer" : 0, 
"byteLength" : 124, 
"byteOffset" : 21528 
}, 
{ 
"buffer" : 0, 
"byteLength" : 496, 
"byteOffset" : 21652 
}, 
{ 
"buffer" : 0, 
"byteLength" : 12, 
"byteOffset" : 22148 
}, 
{ 
"buffer" : 0, 
"byteLength" : 108, 
"byteOffset" : 22160 
} 
], 
"buffers" : [ 
{ 
"byteLength" : 22268, 
"uri" : "data:application/octet-stream;base64," 
} 
], 
"materials" : [ 
{ 
"name" : "red", 
"pbrMetallicRoughness" : { 
"baseColorFactor" : [ 
0.640000066757203, 
0.0005021536331944708, 
0.0038398605412224007, 
1.0 
], 
"metallicFactor" : 0.0 
} 
}, 
{ 
"emissiveFactor" : [ 
0.01641991862912029, 
0.01641991862912029, 
0.01641991862912029 
], 
"name" : "metal", 
"pbrMetallicRoughness" : { 
"baseColorFactor" : [ 
0.03456825069439784, 
0.03456825069439784, 
0.03456825069439784, 
1.0 
], 
"metallicFactor" : 0.0 
} 
} 
], 
"meshes" : [ 
{ 
"name" : "object_1.001", 
"primitives" : [ 
{ 
"attributes" : { 
"JOINTS_0" : 5, 
"NORMAL" : 2, 
"POSITION" : 1, 
"TANGENT" : 3, 
"TEXCOORD_0" : 4, 
"WEIGHTS_0" : 6 
}, 
"indices" : 0, 
"material" : 0 
} 
] 
}, 
{ 
"name" : "object_4.001", 
"primitives" : [ 
{ 
"attributes" : { 
"NORMAL" : 9, 
"POSITION" : 8, 
"TANGENT" : 10, 
"TEXCOORD_0" : 11 
}, 
"indices" : 7, 
"material" : 0 
} 
] 
}, 
{ 
"name" : "base", 
"primitives" : [ 
{ 
"attributes" : { 
"NORMAL" : 14, 
"POSITION" : 13, 
"TANGENT" : 15, 
"TEXCOORD_0" : 16 
}, 
"indices" : 12, 
"material" : 1 
} 
] 
}, 
{ 
"name" : "roter", 
"primitives" : [ 
{ 
"attributes" : { 
"NORMAL" : 19, 
"POSITION" : 18, 
"TANGENT" : 20, 
"TEXCOORD_0" : 21 
}, 
"indices" : 17, 
"material" : 0 
} 
] 
}, 
{ 
"name" : "roter_roter", 
"primitives" : [ 
{ 
"attributes" : { 
"NORMAL" : 19, 
"POSITION" : 18, 
"TANGENT" : 20, 
"TEXCOORD_0" : 21 
}, 
"indices" : 17, 
"material" : 0 
} 
] 
} 
], 
"nodes" : [ 
{ 
"mesh" : 2, 
"name" : "base", 
"rotation" : [ 
5.960464477539063e-08, 
1.1102232893229526e-16, 
1.1102230246251565e-16, 
1.0 
], 
"translation" : [ 
0.0, 
1.2597600221633911, 
-0.0 
] 
}, 
{ 
"mesh" : 1, 
"name" : "lid", 
"rotation" : [ 
0.7071066498756409, 
-1.882577862488688e-07, 
-0.70710688829422, 
2.9502794518521114e-07 
], 
"scale" : [ 
1.0, 
0.9296829104423523, 
1.0 
], 
"translation" : [ 
4.0168112036553794e-07, 
-1.7385585308074951, 
8.246756522112264e-08 
] 
}, 
{ 
"name" : "muzzle", 
"rotation" : [ 
2.119042363801782e-08, 
-8.476168034121656e-08, 
3.027207817751787e-09, 
1.0 
], 
"translation" : [ 
-2.4284790924866684e-06, 
0.877061128616333, 
7.605201721191406 
] 
}, 
{ 
"children" : [ 
1, 
2, 
4 
], 
"mesh" : 4, 
"name" : "roter", 
"rotation" : [ 
-2.119042363801782e-08, 
8.476168034121656e-08, 
-3.027207595707182e-09, 
1.0 
], 
"translation" : [ 
-9.566247172188014e-08, 
3.839779853820801, 
-1.8771885379464948e-08 
] 
}, 
{ 
"mesh" : 0, 
"name" : "tube", 
"rotation" : [ 
-2.494332518310216e-09, 
0.7821821570396423, 
0.6230498552322388, 
-1.340738009503184e-07 
], 
"scale" : [ 
1.0, 
1.3096160888671875, 
1.000002145767212 
], 
"translation" : [ 
-1.1654544351813456e-07, 
-0.27768778800964355, 
2.788132667541504 
] 
} 
], 
"scene" : 0, 
"scenes" : [ 
{ 
"name" : "Scene", 
"nodes" : [ 
0, 
3 
] 
} 
] 
} 
  