{
    "accessors" : [
        {
            "bufferView" : 0,
            "componentType" : 5123,
            "count" : 2994,
            "max" : [
                2991
            ],
            "min" : [
                0
            ],
            "type" : "SCALAR"
        },
        {
            "bufferView" : 1,
            "componentType" : 5126,
            "count" : 2992,
            "max" : [
                837.4907836914062,
                102.1939468383789,
                671.6558227539062
            ],
            "min" : [
                -837.4907836914062,
                -102.19395446777344,
                -671.6558227539062
            ],
            "type" : "VEC3"
        },
        {
            "bufferView" : 2,
            "componentType" : 5126,
            "count" : 2992,
            "max" : [
                1.0,
                1.0,
                1.0
            ],
            "min" : [
                -0.9994646906852722,
                -1.0,
                -1.0
            ],
            "type" : "VEC3"
        },
        {
            "bufferView" : 3,
            "componentType" : 5126,
            "count" : 2992,
            "max" : [
                0.9999885559082031,
                0.9994317293167114,
                0.9999120235443115,
                1.0
            ],
            "min" : [
                -1.0,
                -1.0,
                -1.0,
                1.0
            ],
            "type" : "VEC4"
        },
        {
            "bufferView" : 4,
            "componentType" : 5126,
            "count" : 2992,
            "max" : [
                0.9857257008552551,
                0.9922451926395297
            ],
            "min" : [
                0.010997908189892769,
                0.014838576316833496
            ],
            "type" : "VEC2"
        }
    ],
    "asset" : {
        "generator" : "Khronos Blender glTF 2.0 exporter",
        "version" : "2.0"
    },
    "bufferViews" : [
        {
            "buffer" : 0,
            "byteLength" : 5988,
            "byteOffset" : 0,
            "target" : 34963
        },
        {
            "buffer" : 0,
            "byteLength" : 35904,
            "byteOffset" : 5988,
            "target" : 34962
        },
        {
            "buffer" : 0,
            "byteLength" : 35904,
            "byteOffset" : 41892,
            "target" : 34962
        },
        {
            "buffer" : 0,
            "byteLength" : 47872,
            "byteOffset" : 77796,
            "target" : 34962
        },
        {
            "buffer" : 0,
            "byteLength" : 23936,
            "byteOffset" : 125668,
            "target" : 34962
        }
    ],
    "buffers" : [
        {
            "byteLength" : 149604,
            "uri" : "data:application/octet-stream;base64,"
        }
    ],
    "images" : [
        {
            "mimeType" : "image/png",
            "name" : "Platform_diffuse",
            "uri" : "data:image/png;base64,"
        }
    ],
    "materials" : [
        {
            "name" : "black",
            "pbrMetallicRoughness" : {
                "baseColorFactor" : [
                    0.4705882619409003,
                    0.4705882619409003,
                    0.4705882619409003,
                    1.0
                ],
                "baseColorTexture" : {
                    "index" : 0
                },
                "metallicFactor" : 0.0
            }
        }
    ],
    "meshes" : [
        {
            "name" : "Untitled",
            "primitives" : [
                {
                    "attributes" : {
                        "NORMAL" : 2,
                        "POSITION" : 1,
                        "TANGENT" : 3,
                        "TEXCOORD_0" : 4
                    },
                    "indices" : 0,
                    "material" : 0
                }
            ]
        }
    ],
    "nodes" : [
        {
            "mesh" : 0,
            "name" : "Platform",
            "rotation" : [
                -2.1855694143368964e-08,
                0.0,
                -0.0,
                1.0
            ],
            "scale" : [
                0.009999999776482582,
                0.009999999776482582,
                0.009999999776482582
            ],
            "translation" : [
                0.0,
                1.0139588117599487,
                -2.0134507394686807e-08
            ]
        }
    ],
    "samplers" : [
        {}
    ],
    "scene" : 0,
    "scenes" : [
        {
            "name" : "Scene",
            "nodes" : [
                0
            ]
        }
    ],
    "textures" : [
        {
            "sampler" : 0,
            "source" : 0
        }
    ]
}
