<?xml version="1.0" encoding="utf-8"?>
<!-- Generator: Adobe Illustrator 21.0.2, SVG Export Plug-In . SVG Version: 6.00 Build 0)  -->
<svg version="1.1" xmlns="http://www.w3.org/2000/svg" xmlns:xlink="http://www.w3.org/1999/xlink" x="0px" y="0px"
	 viewBox="0 0 800 400" style="enable-background:new 0 0 800 400;" xml:space="preserve">
<style type="text/css">
	.st0{display:none;}
	.st1{display:inline;fill:#1B1C1D;stroke:#000000;stroke-miterlimit:10;}
	.st2{fill:#CC561B;}
	.st3{fill:#B24D16;}
	.st4{fill:#EFA278;}
	.st5{fill:#F2711C;}
</style>
<g id="background" class="st0">
	<rect class="st1" width="800" height="400"/>
</g>
<g id="logo">
	<g>
		<g>
			<path class="st2" d="M55.1,337.7l0.8-10.2l0.8-15.2l0.5-14.9h-2.4l-2.3,0l-2.2,0l-8.1,0.2c0.2-3.4,0.3-5.9,0.3-7.6
				c6.7,0,13.7,0.1,21,0.1l12.5,0l6.7,0c-0.2,3.3-0.3,5.9-0.3,7.6c-4.2-0.2-8.2-0.3-12.1-0.3h-2.7l-0.4,6.4l-1,24.5l-0.1,4.1
				c0,1.7,0,3.5,0,5.3l-5.3-0.1C60.3,337.6,58.4,337.6,55.1,337.7z"/>
			<path class="st2" d="M113.3,289.2c3.5,0,6.8,0.5,10,1.4c3.2,1,6,2.5,8.5,4.7c2.5,2.2,4.3,4.7,5.6,7.5s1.9,6.2,1.9,10
				c0,3.6-0.6,7-1.8,10.3c-1.2,3.3-3,6.1-5.5,8.4c-2.5,2.4-5.5,4.1-9.1,5.3c-3.6,1.1-7.3,1.7-11.3,1.7c-3.7,0-7.3-0.5-10.7-1.6
				c-3.4-1-6.4-2.7-8.9-4.9c-2.5-2.2-4.3-4.8-5.3-7.7c-1.1-2.9-1.6-6-1.6-9.4c0-3.7,0.7-7.2,2-10.6c1.3-3.4,3.3-6.2,5.9-8.4
				c2.6-2.2,5.6-3.9,9.1-5C105.5,289.8,109.3,289.2,113.3,289.2z M112.7,296.6c-3.5,0-6.6,0.8-9.2,2.4c-2.6,1.6-4.6,3.8-5.9,6.6
				c-1.3,2.8-2,5.8-2,9.1c0,3,0.6,5.8,1.9,8.4c1.3,2.5,3.2,4.5,5.8,5.8c2.6,1.3,5.5,2,8.5,2c2.3,0,4.5-0.4,6.6-1.2
				c2.1-0.8,3.9-2,5.4-3.6c1.5-1.6,2.7-3.6,3.4-5.8c0.8-2.3,1.2-4.7,1.2-7.1c0-2.3-0.3-4.5-1-6.6c-0.7-2.1-1.8-3.9-3.2-5.5
				c-1.4-1.5-3.2-2.7-5.2-3.4C117.1,297,114.9,296.6,112.7,296.6z"/>
			<path class="st2" d="M159.7,337.7c-5.7-16-11.6-31.9-17.8-47.6c2.2,0,4,0.1,5.4,0.1c1.5,0,3.3,0,5.4-0.1l9.8,28.9l4.1,11.4
				c0.9-1.7,2.2-4.5,4-8.3c1.8-3.8,3.1-6.6,3.8-8.4c-1.1-3.3-2.4-7.2-4.1-11.8s-3.1-8.5-4.3-11.7c2,0,3.7,0.1,5.2,0.1
				c1.7,0,3.4,0,5.2-0.1c1.1,4.2,2.3,8.4,3.7,12.5c1.9-4.2,3.7-8.4,5.3-12.5c2,0,3.7,0.1,4.9,0.1c1.4,0,3.1,0,4.9-0.1
				c-1.5,3-3.3,6.8-5.5,11.4c-2.2,4.6-4,8.5-5.3,11.6c0.5,1.7,1.5,4.5,2.9,8.5c1.4,4,2.4,6.8,3.1,8.5l9.4-20l6.8-14.9l2.2-5.1
				c2.2,0,4,0.1,5.4,0.1c1.5,0,3.3,0,5.4-0.1l-6.6,13l-13.7,28.1l-3.1,6.5c-2.5,0-4.6-0.1-6.4-0.1c-1.9,0-4,0-6.4,0.1
				c-1.4-4.7-2.9-9.3-4.5-13.8c-2.2,4.5-4.3,9.1-6.3,13.8c-2.5,0-4.6-0.1-6.5-0.1C164.3,337.6,162.1,337.6,159.7,337.7z"/>
			<path class="st2" d="M221.1,337.7l1-13.4l0.7-15.5l0.5-14.1V290c5.7,0,11.7,0.1,18,0.1l6.7,0l10.1,0l-0.4,7.5l-3.3-0.2
				c-0.9,0-2.2-0.1-3.8-0.1c-1.6,0-3.2,0-4.9,0c-3.6,0-6,0-7,0c-1.1,0-2.7,0.1-4.8,0.1l-0.6,12.4c3.2,0.1,6.4,0.1,9.6,0.1
				c2.2,0,6-0.1,11.3-0.2c-0.2,2.1-0.3,4.7-0.5,7.6c-6.2-0.1-9.8-0.1-10.7-0.1c-2.7,0-6.2,0.1-10.3,0.2l-0.6,13.1l3.8,0
				c1.1,0,3.7,0,7.7-0.1l7.6-0.1l5.1-0.2c-0.2,2.7-0.4,5.2-0.5,7.6c-6.1,0-11.5-0.1-16.4-0.1l-11.5,0L221.1,337.7z"/>
			<path class="st2" d="M264.7,337.7c0.7-6.9,1.2-14.9,1.6-23.9c0.4-9,0.5-16.9,0.5-23.7c2.8,0,5.1,0.1,7,0.1c2,0,4,0,5.9-0.1
				c1.9-0.1,4-0.1,6.2-0.1c2.7,0,5.1,0.2,7.2,0.5c2.1,0.3,4,1,5.7,2.1s2.9,2.4,3.7,4c0.8,1.6,1.2,3.4,1.2,5.4c0,1.3-0.2,2.5-0.5,3.7
				s-0.8,2.3-1.3,3.3c-0.6,1-1.3,1.9-2.1,2.7c-0.8,0.8-1.6,1.4-2.4,1.9c-0.8,0.5-1.7,0.8-2.7,1.2c-1,0.3-2.4,0.7-4.1,1.2l2.4,4.6
				c0.8,1.5,2.2,4.1,4.4,7.9l3.5,6.2c0.2,0.3,0.7,1.4,1.7,3.2c-2.8,0-4.7-0.1-5.6-0.1c-1.1,0-3.1,0-5.9,0.1l-3.9-9.3
				c-0.7-1.4-1.5-3.1-2.4-5l-4.2-8.5c-0.4-0.8-1-2-1.7-3.6c1.6,0.3,3,0.4,4.3,0.4c2,0,3.8-0.3,5.5-1c1.7-0.7,2.9-1.7,3.8-3
				c0.9-1.4,1.3-2.8,1.3-4.5c0-1-0.2-1.9-0.6-2.7c-0.4-0.8-1-1.5-1.9-2.1c-0.9-0.6-2-1-3.2-1.1c-1.3-0.2-2.5-0.2-3.8-0.2
				c-0.7,0-1.7,0-2.9,0s-2.7,0-4.5,0l-0.6,14.3l-0.7,26.2l-5.4-0.1C269.1,337.6,267.3,337.6,264.7,337.7z"/>
			<path class="st2" d="M327.8,337.7l0.9-12.1l0.7-15.2l0.5-15.1c0-0.7,0-2.4,0-5.2c2.6,0,5,0.1,7.3,0.1c1.7,0,3.9,0,6.7-0.1
				c2.8-0.1,5.2-0.1,7.2-0.1c2.7,0,5.3,0.2,7.6,0.5c2.3,0.3,4.4,0.9,6.1,1.8c1.7,0.9,3.3,2,4.5,3.4c1.3,1.3,2.3,2.8,3.1,4.5
				c0.8,1.6,1.4,3.5,1.9,5.5s0.6,4.1,0.6,6.2c0,4-0.7,7.8-2.1,11.4c-1.4,3.6-3.5,6.6-6.2,9c-2.7,2.4-5.8,3.9-9.1,4.6
				c-3.3,0.7-7.1,1-11.4,1l-11.9-0.1C333.7,337.6,331.5,337.6,327.8,337.7z M338.5,330.3c1.9,0.1,3.8,0.1,5.7,0.1
				c2.1,0,4.1-0.1,5.9-0.3c1.8-0.2,3.4-0.5,4.7-1c1.3-0.5,2.6-1.3,3.9-2.4c1.3-1.1,2.4-2.5,3.2-4c0.8-1.5,1.5-3.2,1.9-5
				c0.4-1.8,0.7-3.7,0.7-5.6c0-3.5-0.6-6.4-1.8-8.6c-1.2-2.2-2.8-3.9-4.7-4.9c-1.9-1-4.9-1.5-9-1.5c-2.6,0-5.6,0-9,0.1L338.5,330.3z
				"/>
			<path class="st2" d="M381.7,337.7l1-13.4l0.7-15.5l0.5-14.1V290c5.7,0,11.7,0.1,18,0.1l6.7,0l10.1,0l-0.4,7.5l-3.3-0.2
				c-0.9,0-2.2-0.1-3.8-0.1c-1.6,0-3.2,0-4.9,0c-3.6,0-6,0-7,0c-1.1,0-2.7,0.1-4.8,0.1l-0.6,12.4c3.2,0.1,6.4,0.1,9.6,0.1
				c2.2,0,6-0.1,11.3-0.2c-0.2,2.1-0.3,4.7-0.5,7.6c-6.2-0.1-9.8-0.1-10.7-0.1c-2.7,0-6.2,0.1-10.3,0.2l-0.6,13.1l3.8,0
				c1.1,0,3.7,0,7.7-0.1l7.6-0.1l5.1-0.2c-0.2,2.7-0.4,5.2-0.5,7.6c-6.1,0-11.5-0.1-16.4-0.1l-11.5,0L381.7,337.7z"/>
			<path class="st2" d="M425.4,337.7c0.4-4.6,0.7-8.2,0.8-11c0.3-4.6,0.5-11.3,0.8-19.9c0.2-6.4,0.3-10.9,0.3-13.5V290
				c6.7,0,12.5,0.1,17.5,0.1l9.8,0l5.8,0c-0.3,3.5-0.4,6-0.4,7.5l-5-0.2l-2,0h-2.7H445l-7.2,0l-0.4,12.5l5.9,0.1c4.5,0,7.4,0,8.7,0
				l4.7-0.1c-0.2,2.7-0.3,5.2-0.3,7.4c-4-0.1-7.3-0.1-9.7-0.1c-3,0-6.3,0-9.8,0.1l-0.4,15.4l0,3.1v1.8l-5.3-0.1
				C430.9,337.6,429,337.6,425.4,337.7z"/>
			<path class="st2" d="M466.2,337.7l1-13.4l0.7-15.5l0.5-14.1V290c5.7,0,11.7,0.1,18,0.1l6.7,0l10.1,0l-0.4,7.5l-3.3-0.2
				c-0.9,0-2.2-0.1-3.8-0.1c-1.6,0-3.2,0-4.9,0c-3.6,0-6,0-7,0c-1.1,0-2.7,0.1-4.8,0.1l-0.6,12.4c3.2,0.1,6.4,0.1,9.6,0.1
				c2.2,0,6-0.1,11.3-0.2c-0.2,2.1-0.3,4.7-0.5,7.6c-6.2-0.1-9.8-0.1-10.7-0.1c-2.7,0-6.2,0.1-10.3,0.2l-0.6,13.1l3.8,0
				c1.1,0,3.7,0,7.7-0.1l7.6-0.1l5.1-0.2c-0.2,2.7-0.4,5.2-0.5,7.6c-6.1,0-11.5-0.1-16.4-0.1l-11.5,0L466.2,337.7z"/>
			<path class="st2" d="M509.9,337.7c0.4-4.2,0.8-8.8,1-14l0.8-17.1c0.3-6.2,0.4-11.7,0.4-16.5c2.7,0,5,0.1,6.9,0.1
				c1.4,0,3.4,0,6.1-0.1c2.6,4.6,6.3,10.6,10.9,17.9s8.4,13.5,11.2,18.3l1.3-32.4c0-0.8,0-2.1,0-3.9c2.2,0,3.8,0.1,5,0.1
				c0.4,0,2.1,0,4.9-0.1l-0.9,12.8l-1.1,21.9l-0.4,12.9c-2.4,0-4.5-0.1-6.2-0.1c-1.4,0-3.5,0-6.6,0.1c-1.2-2.1-2-3.6-2.7-4.6
				c-1-1.5-3-4.7-6.1-9.5c-2-3.2-4.6-7.2-7.7-12.1c-2.3-3.6-4.2-6.8-5.8-9.5c-0.2,3.8-0.5,10.8-0.9,21c-0.2,4.2-0.3,9.1-0.4,14.8
				c-2.2,0-3.8-0.1-4.8-0.1C514.3,337.6,512.6,337.6,509.9,337.7z"/>
			<path class="st2" d="M564.9,336.7c-0.2-3.5-0.4-6.4-0.7-8.7c4.6,2.1,8.7,3.1,12.4,3.1c1.5,0,2.9-0.2,4.2-0.7
				c1.3-0.5,2.2-1.1,2.9-1.9c0.6-0.8,0.9-1.8,0.9-2.8c0-0.8-0.1-1.5-0.4-2.1c-0.4-0.9-1.2-1.8-2.2-2.7c-1.3-1.3-3.7-3.4-7.1-6.3
				c-1.6-1.4-2.8-2.4-3.4-3c-1.4-1.3-2.5-2.5-3.2-3.6c-0.7-1.1-1.3-2.1-1.6-3.2s-0.5-2.2-0.5-3.4c0-2.2,0.6-4.2,1.8-6.2
				s3-3.4,5.5-4.5s5.5-1.6,9.2-1.6c3.3,0,7.1,0.4,11.2,1.2c0.1,2.4,0.3,5.2,0.7,8.3c-3.6-1.4-7-2.1-10-2.1c-2.3,0-4.1,0.5-5.6,1.6
				c-1.5,1-2.2,2.2-2.2,3.6c0,0.4,0,0.8,0.2,1.2s0.3,0.8,0.5,1.2c0.2,0.4,0.6,0.9,1.1,1.5c0.5,0.6,1.3,1.3,2.3,2.2
				c1,0.8,1.9,1.5,2.6,2l4.3,3.9c1.1,0.9,2.1,1.8,2.9,2.7c0.9,0.9,1.6,1.7,2.2,2.5s1.1,1.5,1.4,2.3c0.3,0.7,0.6,1.5,0.8,2.2
				c0.2,0.8,0.3,1.6,0.3,2.4c0,2-0.5,3.8-1.4,5.5c-0.9,1.7-2.2,3.2-3.9,4.3c-1.7,1.1-3.6,1.9-5.6,2.3c-2,0.4-4.2,0.6-6.4,0.6
				c-1.5,0-3.2-0.1-5.2-0.4C570.8,337.9,568.1,337.4,564.9,336.7z"/>
			<path class="st2" d="M602.8,337.7l1-13.4l0.7-15.5l0.5-14.1V290c5.7,0,11.7,0.1,18,0.1l6.7,0l10.1,0l-0.4,7.5l-3.3-0.2
				c-0.9,0-2.2-0.1-3.8-0.1c-1.6,0-3.2,0-4.9,0c-3.6,0-6,0-7,0c-1.1,0-2.7,0.1-4.8,0.1l-0.6,12.4c3.2,0.1,6.4,0.1,9.6,0.1
				c2.2,0,6-0.1,11.3-0.2c-0.2,2.1-0.3,4.7-0.5,7.6c-6.2-0.1-9.8-0.1-10.7-0.1c-2.7,0-6.2,0.1-10.3,0.2l-0.6,13.1l3.8,0
				c1.1,0,3.7,0,7.7-0.1l7.6-0.1l5.1-0.2c-0.2,2.7-0.4,5.2-0.5,7.6c-6.1,0-11.5-0.1-16.4-0.1l-11.5,0L602.8,337.7z"/>
			<path class="st2" d="M658,337.7c2.4-4.3,5.3-9.6,8.5-15.9l9.2-17.6c2.9-5.4,5.2-10.2,7.1-14.1c3,0,5.2,0.1,6.4,0.1
				c2.2,0,4.4,0,6.5-0.1l5,14.3l10.8,29.5l1.5,3.8l-5.2-0.1c-1.2,0-3.2,0-6.1,0.1c-0.6-2.1-1.4-4.9-2.6-8.4
				c-1.2-3.5-2.2-6.4-3.1-8.6h-18.4c-2.7,5.5-5.4,11.2-8,16.9l-5.7-0.1C663,337.6,661,337.6,658,337.7z M680.8,313.5h13.4l-5.5-16.2
				l-2.8,5.9L680.8,313.5z"/>
			<path class="st2" d="M718.1,337.7c0.7-6.9,1.2-14.9,1.6-23.9c0.4-9,0.5-16.9,0.5-23.7c2.8,0,5.1,0.1,7,0.1c2,0,4,0,6-0.1
				c1.9-0.1,4-0.1,6.2-0.1c2.7,0,5.1,0.2,7.2,0.5c2.1,0.3,4,1,5.7,2.1s2.9,2.4,3.7,4c0.8,1.6,1.2,3.4,1.2,5.4c0,1.3-0.2,2.5-0.5,3.7
				s-0.8,2.3-1.3,3.3c-0.6,1-1.3,1.9-2.1,2.7c-0.8,0.8-1.6,1.4-2.4,1.9c-0.8,0.5-1.7,0.8-2.7,1.2c-1,0.3-2.4,0.7-4.1,1.2l2.4,4.6
				c0.8,1.5,2.2,4.1,4.4,7.9l3.5,6.2c0.2,0.3,0.7,1.4,1.7,3.2c-2.8,0-4.7-0.1-5.6-0.1c-1.1,0-3.1,0-5.9,0.1l-3.9-9.3
				c-0.7-1.4-1.5-3.1-2.4-5l-4.2-8.5c-0.4-0.8-1-2-1.7-3.6c1.6,0.3,3,0.4,4.3,0.4c2,0,3.8-0.3,5.5-1c1.7-0.7,2.9-1.7,3.8-3
				s1.3-2.8,1.3-4.5c0-1-0.2-1.9-0.6-2.7s-1-1.5-1.9-2.1c-0.9-0.6-2-1-3.2-1.1c-1.3-0.2-2.5-0.2-3.8-0.2c-0.7,0-1.7,0-2.9,0
				c-1.2,0-2.7,0-4.5,0l-0.6,14.3l-0.7,26.2l-5.4-0.1C722.5,337.6,720.7,337.6,718.1,337.7z"/>
		</g>
		<g>
			<path class="st3" d="M220.4,380.5h-6.6v9.2h9.5v1.6h-11.1v-21.9h9.9v1.6h-8.3v7.9h6.6V380.5z"/>
			<path class="st3" d="M246.9,391.8l-9.1-10.9l-9.1,10.8l-1.3-1l9.3-11.1l-8.2-9.8l1.2-1l8.2,9.7l8.2-9.7l1.2,1.1l-8.3,9.9l9.2,11
				L246.9,391.8z"/>
			<path class="st3" d="M253,391.3v-21.9h6.7c4.4,0,7,3.6,7,7c0,4.3-3.3,7.2-6.9,7.2h-5.2v7.8H253z M259.8,381.9
				c2.6,0,5.3-2,5.3-5.5c0-2.5-1.9-5.4-5.4-5.4h-5.1v10.9H259.8z"/>
			<path class="st3" d="M280.3,380.5h-6.6v9.2h9.5v1.6h-11.1v-21.9h9.9v1.6h-8.3v7.9h6.6V380.5z"/>
			<path class="st3" d="M297.5,383.3c-0.8,0-1.7-0.2-1.9-0.2l7.6,7.7l-1.1,1.1l-9.9-9.9h4.4c2.6,0,5.3-2,5.3-5.5
				c0-2.5-1.9-5.4-5.4-5.4h-5.1v20.3h-1.6v-21.9h6.7c4.4,0,7,3.6,7,7C303.5,380.2,300.7,383.3,297.5,383.3z"/>
			<path class="st3" d="M309.7,391.3v-21.9h1.6v21.9H309.7z"/>
			<path class="st3" d="M326.8,380.5h-6.6v9.2h9.5v1.6h-11.1v-21.9h9.9v1.6h-8.3v7.9h6.6V380.5z"/>
			<path class="st3" d="M352.1,387.6v-18.2h1.6V392l-15.9-18.9v18.2h-1.6v-22.6L352.1,387.6z"/>
			<path class="st3" d="M370.6,390.2c2.6,0,5.1-1,6.9-2.8l1.1,1.1c-2.1,2.1-5,3.3-8,3.3c-6.9,0-11.6-5.4-11.6-11.4
				c0-6.9,5.4-11.6,11.4-11.6c3.4,0,6.3,1.3,8.3,3.4l-1.1,1.1c-1.7-1.8-4.2-2.9-7.2-2.9c-5.2,0-9.8,4.2-9.8,10
				C360.6,385.6,364.8,390.2,370.6,390.2z"/>
			<path class="st3" d="M393.4,380.5h-6.6v9.2h9.5v1.6h-11.1v-21.9h9.9v1.6h-8.3v7.9h6.6V380.5z"/>
			<path class="st3" d="M414.9,391.3v-21.9h6.7c4.4,0,7,3.6,7,7c0,4.3-3.3,7.2-6.9,7.2h-5.2v7.8H414.9z M421.7,381.9
				c2.6,0,5.3-2,5.3-5.5c0-2.5-1.9-5.4-5.4-5.4h-5.1v10.9H421.7z"/>
			<path class="st3" d="M443.5,368.8c6.9,0,11.6,5.4,11.6,11.4c0,6.9-5.4,11.6-11.4,11.6c-6.9,0-11.6-5.4-11.6-11.4
				C432.1,373.5,437.5,368.8,443.5,368.8z M443.5,370.4c-5,0-9.8,4-9.8,10c0,5,4,9.8,10,9.8c5.1,0,9.8-4,9.8-9.9
				C453.5,374.9,449.3,370.4,443.5,370.4z"/>
			<path class="st3" d="M465.2,392c-2.3,0-6.4-1.1-6.8-6.9l1.6-0.1c0.4,4.5,3.3,5.4,5.2,5.4c3.5,0,5.5-2.8,5.5-5.2
				c0-2-0.9-3.2-5.9-4.5c-2.8-0.8-5.4-2.3-5.4-5.6c0-4.3,3.5-6,5.9-6c3.7,0,6,2.7,6.2,6l-1.6,0.1c-0.1-2.5-1.8-4.5-4.5-4.5
				c-2,0-4.3,1.3-4.3,4.3c0,2.5,2,3.5,4.2,4.1c5.8,1.5,7.1,3.5,7.1,6.1C472.4,388.3,469.8,392,465.2,392z"/>
			<path class="st3" d="M483.1,392c-2.3,0-6.4-1.1-6.8-6.9l1.6-0.1c0.4,4.5,3.3,5.4,5.2,5.4c3.5,0,5.5-2.8,5.5-5.2
				c0-2-0.9-3.2-5.9-4.5c-2.8-0.8-5.4-2.3-5.4-5.6c0-4.3,3.5-6,5.9-6c3.7,0,6,2.7,6.2,6l-1.6,0.1c-0.1-2.5-1.8-4.5-4.5-4.5
				c-2,0-4.3,1.3-4.3,4.3c0,2.5,2,3.5,4.2,4.1c5.8,1.5,7.1,3.5,7.1,6.1C490.2,388.3,487.6,392,483.1,392z"/>
			<path class="st3" d="M496.1,391.3v-21.9h1.6v21.9H496.1z"/>
			<path class="st3" d="M517.4,385c0,3.9-3.1,6.3-6.1,6.3h-6.3v-21.9h5.5c3.6,0,5.7,2.8,5.7,5.5c0,1.9-0.7,2.8-1.1,3.2
				c-0.3,0.3-1.4,1-1.9,1.1C514,379.3,517.4,381.2,517.4,385z M511.2,378.9c1.7-0.3,3.3-1.8,3.3-4c0-1.9-1.6-3.9-4.1-3.9h-3.9v7.9
				H511.2z M515.8,385c0-2.1-1.5-4.5-4.1-4.5h-5.1v9.2h4.7C513.5,389.7,515.8,387.9,515.8,385z"/>
			<path class="st3" d="M523.8,391.3v-21.9h1.6v21.9H523.8z"/>
			<path class="st3" d="M532.7,369.4h1.6v20.3h11.6v1.6h-13.2V369.4z"/>
			<path class="st3" d="M550.5,391.3v-21.9h1.6v21.9H550.5z"/>
			<path class="st3" d="M563.9,391.3V371h-7.5v-1.6h16.6v1.6h-7.4v20.3H563.9z"/>
			<path class="st3" d="M581.7,391.3v-6.7l-6.9-14.9l1.5-0.7l6.3,13.5l6.3-13.5l1.5,0.7l-7,14.9v6.6H581.7z"/>
		</g>
		<g>
			<polygon class="st4" points="400.9,0 354.8,79.9 447.1,79.9 			"/>
			<polygon class="st5" points="452.3,88.9 349.6,88.9 265.2,235.2 359.1,235.2 400.9,162.7 442.7,235.2 536.7,235.2 			"/>
		</g>
	</g>
</g>
</svg>
