<?xml version="1.0" encoding="utf-8"?>
<!-- Generator: Adobe Illustrator 21.0.2, SVG Export Plug-In . SVG Version: 6.00 Build 0)  -->
<svg version="1.1" xmlns="http://www.w3.org/2000/svg" xmlns:xlink="http://www.w3.org/1999/xlink" x="0px" y="0px"
	 viewBox="0 0 500 400" style="enable-background:new 0 0 500 400;" xml:space="preserve">
<style type="text/css">
	.st0{fill:#1B1C1D;stroke:#000000;stroke-miterlimit:10;}
	.st1{fill:#BE1E2D;}
	.st2{fill:#D7212B;}
	.st3{fill:#DBB865;}
	.st4{fill:#ED1C24;}
</style>
<g id="logo">
	<g>
		<path class="st1" d="M168.9,86.6c0,0,38.7-39.9,68.6-18.5l-17.3,1C220.2,69.2,192.4,74.7,168.9,86.6z"/>
		<path class="st2" d="M109.6,225.1c0,0,10.4-18.8,35.4-8.9c0,0,23.6,53,76.4,72.8C221.5,289.1,136.3,269.6,109.6,225.1z"/>
		<path class="st2" d="M390.7,225.1c0,0-10.4-18.8-35.4-8.9c0,0-23.6,53-76.4,72.8C278.8,289.1,364,269.6,390.7,225.1z"/>
		<path class="st3" d="M181.5,212.6c10.2,16.5,24.4,28.5,37.2,36.8c-8.6-17.1-21.7-33.2-26.7-39.1L181.5,212.6z"/>
		<path class="st3" d="M318.8,212.6l-2.9-0.6c-8.6,12.4-19.5,22.1-29.9,29.4c-1.6,2.7-3.1,5.4-4.4,8.1
			C294.4,241.2,308.6,229.1,318.8,212.6z"/>
		<path class="st3" d="M342.7,216.8c-26,47.8-92.5,70.7-92.5,70.7v-5.1c0,0-15.5-12.5-25.4-18.2c-0.4-1.4-0.9-2.9-1.5-4.3
			c-32.3-17.3-50.1-48.3-50.1-48.3l-18.8,6.3c23.3,52.1,95.7,77.1,95.7,77.1s72.5-25,95.7-77.1L342.7,216.8z"/>
		<path class="st3" d="M190.3,123.5l-6.4,5.2c0,0-1.7,42.5,0,50.3l8.5,6.4v-25.8l-4.6-28.9l2.9-1L190.3,123.5z"/>
		<polygon points="185.9,157.3 185.9,178.8 191,181.2 191,163.4 		"/>
		<path class="st3" d="M310,123.5l6.4,5.2c0,0,1.7,42.5,0,50.3l-8.5,6.4v-25.8l4.6-28.9l-2.9-1L310,123.5z"/>
		<path class="st3" d="M306.1,136.7c0,0-18.6,0.7-40.1-11.1l-15.8,11.1l-15.8-11.1c-21.5,11.8-40.1,11.1-40.1,11.1
			c9.3,28.3,0.8,67.3,0.8,67.3c28.6,25.8,34.7,55.8,34.7,55.8c6.8-13.6,7.5-40.8,7.5-40.8l-3.6-45.8c-22.2-1.4-27.2-22.9-27.2-22.9
			l24.3,2.5c17.2,7.5,12.9,48,12.9,48l6.5,7.9l6.5-7.9c0,0-4.3-40.4,12.9-48l24.3-2.5c0,0-5,21.5-27.2,22.9l-3.6,45.8
			c0,0,0.7,27.2,7.5,40.8c0,0,6.1-30.1,34.7-55.8C305.3,204,296.8,165,306.1,136.7z M210,176.1l0.6,22.6
			c19.4,20.8,19.3,41.5,19.3,41.5c-6.4-18.8-26-40.3-26-40.3v-29.8L210,176.1z M296.4,199.9c0,0-19.6,21.5-26,40.3
			c0,0-0.1-20.8,19.3-41.5l0.6-22.6l6-6L296.4,199.9L296.4,199.9z"/>
		<path class="st3" d="M293.7,128c6.7,1.3,11.7,1.9,11.7,1.9C305,92,273.9,74.4,273.9,74.4l-23.7-3.9l-23.7,3.9
			c0,0-31.1,17.5-31.5,55.5c0,0,4.9-0.6,11.7-1.9c0.8-28,23.3-45.7,23.3-45.7c-11.9,20.7-12.9,38.8-13,43.5c7-1.7,14.3-4,19.5-6.9
			l13.7,9.3l13.7-9.3c5.2,2.9,12.5,5.2,19.5,6.9c-0.1-4.6-1.1-22.7-13-43.4C270.4,82.3,292.9,100,293.7,128z"/>
		<polygon points="314.4,157.3 314.4,178.8 309.3,181.2 309.3,163.4 		"/>
		<path class="st1" d="M266.4,66.4c4.7,0.5,9.5,1.5,13.3,2.8c3.1-7.7,2.4-15.4,1.7-21.2C278.9,28.2,259.8,16,248,15.2
			c-22.9-1.5-41.8,13.9-59,22.2c-13,6.3-32.3,13.5-40.8,11.9c-13.4-2.6-17.6-9.1-17.1-14.1c1.1-11,17.1-8.6,17.1-8.6
			c-2-3.6-9.2-4.6-9.2-4.6c-18.1-2.3-23.9,8-25.3,15.9C110.2,57.7,133,66.1,133,66.1c0,0,0,0-0.1,0c4,1.3,10.5,2.1,19.9,0
			c0,0-9.5,9.4-29.7,3c-8.6,0.8-16.9-2-16.9-2c-9.3-3.7-16.1-4.6-16.1-4.6C62.9,58.5,54,85.8,54,85.8c-7,22.7,5.5,31.4,5.5,31.4
			c-0.1-2.5,0-4.8,0.2-6.7l0,0c0,0,0,0,0-0.1c0.3-2.4,0.9-4.3,1.6-6C64.1,96.9,71,85.7,87.5,89c0,0,3.7,1.3,9.1,6.2
			c0,0-12.2-3.9-19,1.7c9.6,1.1,19.3,6.8,19.3,6.8c15.4,8.3,21,10.8,21,10.8c22.9,7.7,42.5-18.2,42.5-18.2
			c-8,9.6-42.9,13.7-50.9,0.3c26.3,3,49.1-18.7,60.5-26.1c29.1-18.7,39.7-21.5,65.1-19.7c-14.8-10.1-31.1-7.1-31.1-7.1
			s20.3-7.6,26.2-8.6C261.4,30.1,266.2,53.8,266.4,66.4z"/>
		<g>
			<path class="st4" d="M215.1,156.6l12.3,0.9c0,0,4.8,2,5.1,7.2C232.5,164.7,219.7,165.7,215.1,156.6z"/>
			<path class="st4" d="M285.2,156.6l-12.3,0.9c0,0-4.8,2-5.1,7.2C267.8,164.7,280.6,165.7,285.2,156.6z"/>
		</g>
	</g>
	<g>
		<path class="st1" d="M14.3,364.1c0.1-1.4,0.2-2.8,0.3-4.1c0.1-1.4,0.1-2.8,0.1-4.2V329c-1.8,0-3.4,0-5.1,0c-1.6,0-3.4,0.2-5.3,0.4
			v-7.1h28.4v7.1c-1.2-0.1-2.4-0.2-3.6-0.3c-1.2-0.1-2.4-0.1-3.5-0.1h-3.4c0,2.2,0,5.9-0.1,11c-0.1,5.1-0.1,7.9-0.1,8.2
			c0,5.9,0.3,11.2,0.8,15.8H14.3z"/>
		<path class="st1" d="M49.1,364.6c-5.7,0-9.8-2.2-12.4-6.7c-2-3.5-3-8.4-3-14.6c0-6.3,1-11.2,2.9-14.6c2.5-4.5,6.7-6.8,12.5-6.8
			c5.7,0,9.8,2.2,12.4,6.7c2,3.5,3,8.5,3,14.7c0,6.2-1,11-3,14.6C59,362.3,54.9,364.6,49.1,364.6z M49.1,328.4
			c-3.1,0-5.3,1.8-6.4,5.4c-0.7,2.3-1.1,5.4-1.1,9.5c0,4.1,0.3,7.2,1,9.3c1.1,3.6,3.3,5.4,6.4,5.4c3.2,0,5.4-1.8,6.5-5.4
			c0.7-2.1,1-5.3,1-9.4c0-4.3-0.3-7.4-0.9-9.4C54.6,330.2,52.4,328.4,49.1,328.4z"/>
		<path class="st1" d="M82.6,364.1h-7.6c-0.1-0.5-1-5-2.6-13.6c-1-5.3-1.9-9.8-2.8-13.6c-1.1-5-2.3-9.5-3.6-13.5l8.2-1.7
			c0,4,0.6,8.8,1.9,14.3c1.1,4.8,2.3,9.5,3.4,14.2l5.2-22c0,0-0.1-0.6-0.4-1.6c-0.3-1-0.6-2.1-1-3.2l8.2-1.7
			c0.3,4.1,1.2,8.9,2.6,14.4c1.2,4.7,2.4,9.4,3.7,14.1c0.5-2.2,1.1-5.3,2-9.4c1-4.8,1.7-7.9,2-9.5c0.6-3.4,1.1-6.6,1.3-9.6l7.9,1.7
			c-1,3.4-2.1,7.9-3.4,13.5c-0.9,4-1.9,8.4-2.9,13.2c-1,4.8-2,9.5-3,14h-7.7l-5.5-22.7L82.6,364.1z"/>
		<path class="st1" d="M114.7,364.1c0.3-2.7,0.5-5.2,0.5-7.5v-10.3c-0.4,0-0.7,0-0.9,0c-0.3,0-0.7,0.1-1.4,0.2v-7.2l2.3,0.2v-9.3
			c0-2.5-0.2-5.1-0.5-7.9h22.2v7.1c-1.2-0.1-2.4-0.2-3.6-0.3c-1.2-0.1-2.4-0.1-3.6-0.1h-7v10.6h3h1.1c2.7,0,5.3-0.1,7.9-0.4v7.2
			c-1-0.1-2.1-0.2-3.2-0.3c-1.1-0.1-2.1-0.1-3.2-0.1h-5.7v11.5h5.8h1.2c3,0,5.8-0.1,8.5-0.4v7.1H114.7z"/>
		<path class="st1" d="M163.2,365.4c-0.8-2-1.7-4-2.7-5.9c-1-1.9-2-3.9-3.1-5.8c-1.3-2.2-2.5-4.2-3.7-6c-1.2-1.8-2.4-3.2-3.5-4.4
			v12.4c0,1.1,0,2,0,2.8c0,0.8,0,1.4,0.1,1.8c0,0.3,0.1,0.6,0.1,1c0,0.4,0.1,0.8,0.2,1.2c0,0.5,0.1,1,0.2,1.5h-8.5
			c0.2-1.5,0.3-2.9,0.4-4.3c0.1-1.4,0.1-2.7,0.1-4.1v-25.6c0-1,0-2-0.1-3.2c0-1.2-0.2-2.7-0.4-4.6h12c4.2,0,7.3,0.8,9.4,2.3
			c2.5,1.8,3.7,4.8,3.7,8.9c0,2.5-0.6,4.8-1.7,7c-1.1,2.2-2.7,4.1-4.6,5.9c0.7,1.2,1.3,2.3,1.9,3.3c0.5,1,1,1.8,1.3,2.4
			c1.1,2,2.1,3.7,3.2,5.3c1,1.6,2,2.9,2.9,4L163.2,365.4z M155.6,338.1l1.4,2.2c0.9-1,1.6-2,2.1-3.1c0.5-1.1,0.8-2.1,0.8-3.2
			c0-2-0.5-3.3-1.5-4c-1-0.7-2.5-1-4.5-1h-3.6v13L155.6,338.1z"/>
		<path class="st1" d="M207.6,326.2l3.4-5.1c5.3,2.5,9.5,5.9,12.7,10.5c3.4,4.8,5.1,10,5.1,15.6c0,5.7-1.5,10-4.4,12.8
			c-2.9,2.8-7.2,4.2-12.9,4.2h-12c0.3-2.2,0.4-4.6,0.6-7.4c0.1-2.8,0.2-5.3,0.2-7.6c0-2.1,0-5.6-0.1-10.5c-0.1-4.9-0.1-7.5-0.1-7.8
			c0-1,0-2.2,0-3.4c0-1.3-0.2-2.9-0.5-4.9h8V326.2z M209.8,357.5c3.8,0,6.6-0.8,8.3-2.3c1.9-1.6,2.8-4.3,2.8-8.1
			c0-4.2-1.3-8.1-3.8-11.6c-2.3-3.3-5.5-5.9-9.5-7.8v29.8H209.8z"/>
		<path class="st1" d="M234.1,364.1c0.3-2.7,0.5-5.2,0.5-7.5v-10.3c-0.4,0-0.7,0-0.9,0c-0.3,0-0.7,0.1-1.4,0.2v-7.2l2.3,0.2v-9.3
			c0-2.5-0.2-5.1-0.5-7.9h22.2v7.1c-1.2-0.1-2.4-0.2-3.6-0.3c-1.2-0.1-2.4-0.1-3.6-0.1h-7v10.6h3h1.1c2.7,0,5.3-0.1,8-0.4v7.2
			c-1-0.1-2.1-0.2-3.2-0.3c-1.1-0.1-2.1-0.1-3.2-0.1h-5.7v11.5h5.8h1.2c3,0,5.8-0.1,8.4-0.4v7.1H234.1z"/>
		<path class="st1" d="M263.4,364.1c0.2-1.1,0.3-2.4,0.4-3.9c0.1-1.5,0.1-3,0.1-4.4v-9.5l-2.3,0.3v-7.3l2.3,0.3v-9
			c0-2.2,0-3.8-0.1-4.6c-0.1-0.9-0.2-2.1-0.4-3.7h21v7.1c-1.2-0.1-2.3-0.2-3.5-0.3c-1.2-0.1-2.4-0.1-3.6-0.1h-5.9v10.6h2.8h1.1
			c2.4,0,4.9-0.1,7.3-0.4v7.2c-1-0.1-2.1-0.2-3.2-0.3c-1.1-0.1-2.1-0.1-3.2-0.1h-4.9v9.8c0,2.6,0.2,5.4,0.5,8.3H263.4z"/>
		<path class="st1" d="M288.9,364.1c0.3-2.7,0.5-5.2,0.5-7.5v-10.3c-0.4,0-0.7,0-0.9,0c-0.3,0-0.7,0.1-1.4,0.2v-7.2l2.3,0.2v-9.3
			c0-2.5-0.2-5.1-0.5-7.9h22.2v7.1c-1.2-0.1-2.4-0.2-3.6-0.3c-1.2-0.1-2.4-0.1-3.6-0.1h-7v10.6h3h1.1c2.7,0,5.3-0.1,7.9-0.4v7.2
			c-1-0.1-2.1-0.2-3.2-0.3c-1.1-0.1-2.1-0.1-3.2-0.1H297v11.5h5.8h1.2c3,0,5.8-0.1,8.5-0.4v7.1H288.9z"/>
		<path class="st1" d="M324.9,339.4c0,2,0,4.1,0,6.2c0,2.1,0,4.1,0,6.2c0,3.1,0,5.3,0.1,6.6s0.2,3.2,0.5,5.7h-8.3
			c0.2-1.4,0.3-2.7,0.4-4c0.1-1.3,0.1-2.7,0.1-4.3v-26.5c-0.8-1-1.3-1.7-1.5-1.9c-0.4-0.5-0.9-1.1-1.7-1.9l6.8-4.7
			c1.2,2.4,2.7,5,4.7,7.9c1.8,2.5,3.7,5,5.5,7.5c2.3,3.1,3.9,5.7,5.1,7.7c0-1.5,0-3.1,0-4.7c0-1.6,0-3.1,0.1-4.7
			c0-2.3,0-4.4-0.1-6.4c-0.1-2-0.3-3.9-0.5-5.8h8.3c-0.2,1.4-0.3,2.8-0.4,4.1c-0.1,1.3-0.1,2.7-0.1,4.3c0,2.1,0,5.6-0.1,10.4
			c-0.1,4.9-0.1,7.5-0.1,7.9c0,3.2,0,5.8,0.1,7.9c0.1,2,0.3,4.4,0.6,7.2H336c0.1-1.1,0.3-2.4,0.4-4c0.1-1.6,0.2-2.9,0.2-4
			c-0.4-0.6-1.9-2.7-4.4-6.2C328.8,345.4,326.4,341.9,324.9,339.4z"/>
		<path class="st1" d="M369.1,331.5c-1.5-0.8-3-1.5-4.6-2.1c-1.6-0.5-3.1-0.8-4.5-0.8c-1,0-1.9,0.2-2.6,0.7s-1,1.1-1,2.1
			c0,1.3,1.4,3.1,4.1,5.2c4.2,3.2,6.8,5.3,7.6,6.2c2.8,2.8,4.2,5.8,4.2,8.8c0,4.2-1.6,7.5-4.8,10c-2.9,2.2-6.5,3.3-10.9,3.3
			c-1.3,0-2.6-0.1-3.8-0.3c-1.2-0.2-2.9-0.6-5.2-1.3v-8c1.5,0.8,2.9,1.4,4.4,1.8c1.5,0.4,3,0.7,4.6,0.7c2,0,3.7-0.4,5.1-1.2
			c1.8-1,2.6-2.4,2.6-4.3c0-1.8-1.4-3.7-4.1-5.9c-2.5-2-5.1-4-7.6-6.1c-2.8-2.6-4.1-5.3-4.1-8c0-3.2,1.1-5.7,3.2-7.5
			c2.1-1.8,4.8-2.8,8-2.8c1.5,0,3,0.2,4.4,0.5c1.5,0.3,3,0.8,4.8,1.4V331.5z"/>
		<path class="st1" d="M378.1,364.1c0.3-2.7,0.5-5.2,0.5-7.5v-10.3c-0.4,0-0.7,0-0.9,0c-0.3,0-0.7,0.1-1.4,0.2v-7.2l2.3,0.2v-9.3
			c0-2.5-0.2-5.1-0.5-7.9h22.2v7.1c-1.2-0.1-2.4-0.2-3.6-0.3c-1.2-0.1-2.4-0.1-3.6-0.1h-7v10.6h3h1.1c2.7,0,5.3-0.1,7.9-0.4v7.2
			c-1-0.1-2.1-0.2-3.2-0.3c-1.1-0.1-2.1-0.1-3.2-0.1h-5.7v11.5h5.8h1.2c3,0,5.8-0.1,8.5-0.4v7.1H378.1z"/>
		<path class="st1" d="M442.3,351c-0.2,0.5-0.7,2.3-1.5,5.3c-1,3.5-1.7,6.5-2.1,9l-7.9-2.3c0.7-1.6,1.4-3.5,2.2-5.9
			c0.3-0.8,0.9-2.8,1.8-6l-1.8,0.3v-7.1l3.8,0.2l6.6-22.1h9.8c0.7,2.5,1.9,6.9,3.6,13.4c1.5,6,2.8,10.6,3.8,13.9
			c1.6,5.2,3.2,9.6,4.9,13.2l-8.2,2.4c-0.3-2.2-0.7-4.6-1.4-7.2c-0.9-3.1-1.5-5.5-1.9-7.1H442.3z M448.2,329.4l-4.1,15.1l8.2-0.1
			L448.2,329.4z"/>
		<path class="st1" d="M488.4,365.4c-0.8-2-1.7-4-2.7-5.9s-2-3.9-3.1-5.8c-1.3-2.2-2.5-4.2-3.7-6c-1.2-1.8-2.4-3.2-3.5-4.4v12.4
			c0,1.1,0,2,0,2.8c0,0.8,0,1.4,0.1,1.8c0,0.3,0.1,0.6,0.1,1c0,0.4,0.1,0.8,0.2,1.2c0,0.5,0.1,1,0.2,1.5h-8.5
			c0.2-1.5,0.3-2.9,0.4-4.3c0.1-1.4,0.1-2.7,0.1-4.1v-25.6c0-1,0-2-0.1-3.2c0-1.2-0.2-2.7-0.4-4.6h12c4.2,0,7.3,0.8,9.4,2.3
			c2.5,1.8,3.7,4.8,3.7,8.9c0,2.5-0.6,4.8-1.7,7c-1.1,2.2-2.7,4.1-4.6,5.9c0.7,1.2,1.3,2.3,1.9,3.3c0.5,1,1,1.8,1.3,2.4
			c1.1,2,2.1,3.7,3.2,5.3s2,2.9,2.9,4L488.4,365.4z M480.8,338.1l1.4,2.2c0.9-1,1.6-2,2.1-3.1c0.5-1.1,0.8-2.1,0.8-3.2
			c0-2-0.5-3.3-1.5-4s-2.5-1-4.5-1h-3.6v13L480.8,338.1z"/>
	</g>
</g>
</svg>
